G04*
G04 #@! TF.GenerationSoftware,Altium Limited,Altium Designer,18.1.9 (240)*
G04*
G04 Layer_Color=65535*
%FSAX25Y25*%
%MOIN*%
G70*
G01*
G75*
%ADD10C,0.00984*%
%ADD11C,0.01000*%
%ADD12C,0.00787*%
%ADD13C,0.00394*%
%ADD14C,0.00591*%
D10*
X0643602Y0469842D02*
G03*
X0643602Y0469842I-0000492J0000000D01*
G01*
X0300925Y0468150D02*
G03*
X0300925Y0468150I-0000492J0000000D01*
G01*
X0235925Y0398937D02*
G03*
X0235925Y0398937I-0000492J0000000D01*
G01*
D11*
X0617247Y0394173D02*
G03*
X0617247Y0394173I-0000240J0000000D01*
G01*
X0185554Y0392008D02*
G03*
X0185554Y0392008I-0000240J0000000D01*
G01*
X0679420Y0447878D02*
X0693429D01*
X0635555Y0412839D02*
X0644343D01*
X0635555Y0447878D02*
X0644076D01*
X0635555Y0412839D02*
Y0447878D01*
X0197388Y0388975D02*
X0194764D01*
Y0387007D01*
X0196076D01*
X0194764D01*
Y0385039D01*
X0198699D02*
Y0387663D01*
X0200011Y0388975D01*
X0201323Y0387663D01*
Y0385039D01*
Y0387007D01*
X0198699D01*
X0202635Y0385039D02*
Y0388975D01*
X0205259Y0385039D01*
Y0388975D01*
X0428765Y0413752D02*
X0428110Y0414408D01*
X0426798D01*
X0426142Y0413752D01*
Y0413096D01*
X0426798Y0412440D01*
X0428110D01*
X0428765Y0411784D01*
Y0411128D01*
X0428110Y0410472D01*
X0426798D01*
X0426142Y0411128D01*
X0430078Y0414408D02*
X0432701D01*
X0431389D01*
Y0410472D01*
X0434013D02*
Y0414408D01*
X0435981D01*
X0436637Y0413752D01*
Y0412440D01*
X0435981Y0411784D01*
X0434013D01*
X0437949Y0410472D02*
X0439261D01*
X0438605D01*
Y0414408D01*
X0437949Y0413752D01*
X0408586Y0414487D02*
Y0410551D01*
X0410553D01*
X0411209Y0411207D01*
Y0413831D01*
X0410553Y0414487D01*
X0408586D01*
X0412521D02*
X0413833D01*
X0413177D01*
Y0410551D01*
X0412521D01*
X0413833D01*
X0415801D02*
Y0414487D01*
X0417769D01*
X0418425Y0413831D01*
Y0412519D01*
X0417769Y0411863D01*
X0415801D01*
X0417113D02*
X0418425Y0410551D01*
X0419737D02*
X0421049D01*
X0420393D01*
Y0414487D01*
X0419737Y0413831D01*
X0389868Y0414566D02*
X0387244D01*
Y0410630D01*
X0389868D01*
X0387244Y0412598D02*
X0388556D01*
X0391180Y0409974D02*
X0393804D01*
X0397739Y0413910D02*
X0397083Y0414566D01*
X0395772D01*
X0395116Y0413910D01*
Y0413254D01*
X0395772Y0412598D01*
X0397083D01*
X0397739Y0411942D01*
Y0411286D01*
X0397083Y0410630D01*
X0395772D01*
X0395116Y0411286D01*
X0399051Y0414566D02*
Y0410630D01*
X0400363Y0411942D01*
X0401675Y0410630D01*
Y0414566D01*
X0402987Y0410630D02*
X0404299D01*
X0403643D01*
Y0414566D01*
X0402987Y0413910D01*
X0446954Y0414408D02*
X0444331D01*
Y0410472D01*
X0446954D01*
X0444331Y0412440D02*
X0445643D01*
X0448266Y0409817D02*
X0450890D01*
X0454826Y0413752D02*
X0454170Y0414408D01*
X0452858D01*
X0452202Y0413752D01*
Y0413096D01*
X0452858Y0412440D01*
X0454170D01*
X0454826Y0411784D01*
Y0411128D01*
X0454170Y0410472D01*
X0452858D01*
X0452202Y0411128D01*
X0456138Y0414408D02*
Y0410472D01*
X0457450Y0411784D01*
X0458762Y0410472D01*
Y0414408D01*
X0462698Y0410472D02*
X0460074D01*
X0462698Y0413096D01*
Y0413752D01*
X0462042Y0414408D01*
X0460730D01*
X0460074Y0413752D01*
X0388451Y0436534D02*
X0385827D01*
Y0432598D01*
X0388451D01*
X0385827Y0434566D02*
X0387139D01*
X0389762Y0431943D02*
X0392386D01*
X0396322Y0435878D02*
X0395666Y0436534D01*
X0394354D01*
X0393698Y0435878D01*
Y0435222D01*
X0394354Y0434566D01*
X0395666D01*
X0396322Y0433910D01*
Y0433254D01*
X0395666Y0432598D01*
X0394354D01*
X0393698Y0433254D01*
X0397634Y0436534D02*
Y0432598D01*
X0398946Y0433910D01*
X0400258Y0432598D01*
Y0436534D01*
X0401570Y0435878D02*
X0402226Y0436534D01*
X0403538D01*
X0404194Y0435878D01*
Y0435222D01*
X0403538Y0434566D01*
X0402882D01*
X0403538D01*
X0404194Y0433910D01*
Y0433254D01*
X0403538Y0432598D01*
X0402226D01*
X0401570Y0433254D01*
X0447821Y0436613D02*
X0445197D01*
Y0432677D01*
X0447821D01*
X0445197Y0434645D02*
X0446509D01*
X0449133Y0432021D02*
X0451756D01*
X0455692Y0435957D02*
X0455036Y0436613D01*
X0453724D01*
X0453068Y0435957D01*
Y0435301D01*
X0453724Y0434645D01*
X0455036D01*
X0455692Y0433989D01*
Y0433333D01*
X0455036Y0432677D01*
X0453724D01*
X0453068Y0433333D01*
X0457004Y0436613D02*
Y0432677D01*
X0458316Y0433989D01*
X0459628Y0432677D01*
Y0436613D01*
X0462908Y0432677D02*
Y0436613D01*
X0460940Y0434645D01*
X0463564D01*
X0429159Y0435878D02*
X0428503Y0436534D01*
X0427191D01*
X0426535Y0435878D01*
Y0435222D01*
X0427191Y0434566D01*
X0428503D01*
X0429159Y0433910D01*
Y0433254D01*
X0428503Y0432598D01*
X0427191D01*
X0426535Y0433254D01*
X0430471Y0436534D02*
X0433095D01*
X0431783D01*
Y0432598D01*
X0434407D02*
Y0436534D01*
X0436375D01*
X0437031Y0435878D01*
Y0434566D01*
X0436375Y0433910D01*
X0434407D01*
X0440967Y0432598D02*
X0438343D01*
X0440967Y0435222D01*
Y0435878D01*
X0440310Y0436534D01*
X0438999D01*
X0438343Y0435878D01*
X0408701Y0436534D02*
Y0432598D01*
X0410669D01*
X0411325Y0433254D01*
Y0435878D01*
X0410669Y0436534D01*
X0408701D01*
X0412637D02*
X0413948D01*
X0413293D01*
Y0432598D01*
X0412637D01*
X0413948D01*
X0415916D02*
Y0436534D01*
X0417884D01*
X0418540Y0435878D01*
Y0434566D01*
X0417884Y0433910D01*
X0415916D01*
X0417228D02*
X0418540Y0432598D01*
X0422476D02*
X0419852D01*
X0422476Y0435222D01*
Y0435878D01*
X0421820Y0436534D01*
X0420508D01*
X0419852Y0435878D01*
X0362244Y0461417D02*
Y0465353D01*
X0363556Y0464041D01*
X0364868Y0465353D01*
Y0461417D01*
X0366180Y0464697D02*
X0366836Y0465353D01*
X0368148D01*
X0368804Y0464697D01*
Y0462073D01*
X0368148Y0461417D01*
X0366836D01*
X0366180Y0462073D01*
Y0464697D01*
X0351181Y0461457D02*
Y0465392D01*
X0352493Y0464080D01*
X0353805Y0465392D01*
Y0461457D01*
X0355117D02*
X0356429D01*
X0355773D01*
Y0465392D01*
X0355117Y0464737D01*
X0338366Y0461457D02*
Y0465392D01*
X0339678Y0464080D01*
X0340990Y0465392D01*
Y0461457D01*
X0344926D02*
X0342302D01*
X0344926Y0464080D01*
Y0464737D01*
X0344270Y0465392D01*
X0342958D01*
X0342302Y0464737D01*
X0326010Y0477033D02*
Y0475721D01*
X0325354Y0475065D01*
X0328634Y0477033D02*
Y0475721D01*
X0327978Y0475065D01*
X0330602Y0472441D02*
X0331914D01*
X0331258D01*
Y0476377D01*
X0330602Y0475721D01*
X0334538Y0477033D02*
Y0475721D01*
X0333882Y0475065D01*
X0337161Y0477033D02*
Y0475721D01*
X0336506Y0475065D01*
X0325144Y0456836D02*
Y0455524D01*
X0324488Y0454868D01*
X0327768Y0456836D02*
Y0455524D01*
X0327112Y0454868D01*
X0329736Y0455524D02*
X0330392Y0456180D01*
X0331704D01*
X0332360Y0455524D01*
Y0452900D01*
X0331704Y0452244D01*
X0330392D01*
X0329736Y0452900D01*
Y0455524D01*
X0334328Y0456836D02*
Y0455524D01*
X0333672Y0454868D01*
X0336951Y0456836D02*
Y0455524D01*
X0336295Y0454868D01*
X0635787Y0450827D02*
Y0454763D01*
X0637755D01*
X0638411Y0454107D01*
Y0452795D01*
X0637755Y0452139D01*
X0635787D01*
X0642347Y0454763D02*
X0639723D01*
Y0452795D01*
X0641035Y0453451D01*
X0641691D01*
X0642347Y0452795D01*
Y0451483D01*
X0641691Y0450827D01*
X0640379D01*
X0639723Y0451483D01*
X0614094Y0469173D02*
Y0475171D01*
X0617094D01*
X0618093Y0474172D01*
Y0472172D01*
X0617094Y0471173D01*
X0614094D01*
X0616094D02*
X0618093Y0469173D01*
X0623092D02*
Y0475171D01*
X0620093Y0472172D01*
X0624091D01*
X0264882Y0469331D02*
Y0475329D01*
X0267881D01*
X0268881Y0474329D01*
Y0472330D01*
X0267881Y0471330D01*
X0264882D01*
X0266881D02*
X0268881Y0469331D01*
X0274879D02*
X0270880D01*
X0274879Y0473329D01*
Y0474329D01*
X0273879Y0475329D01*
X0271880D01*
X0270880Y0474329D01*
X0377109Y0383857D02*
X0376109Y0384856D01*
X0374110D01*
X0373110Y0383857D01*
Y0379858D01*
X0374110Y0378858D01*
X0376109D01*
X0377109Y0379858D01*
X0379108Y0378858D02*
X0381108D01*
X0380108D01*
Y0384856D01*
X0379108Y0383857D01*
X0254567Y0382833D02*
Y0379554D01*
X0255223Y0378898D01*
X0256535D01*
X0257191Y0379554D01*
Y0382833D01*
X0258503Y0378898D02*
X0259815D01*
X0259159D01*
Y0382833D01*
X0258503Y0382177D01*
X0632270Y0461831D02*
Y0465766D01*
X0634238D01*
X0634894Y0465110D01*
Y0463799D01*
X0634238Y0463143D01*
X0632270D01*
X0633582D02*
X0634894Y0461831D01*
X0638829D02*
X0636206D01*
X0638829Y0464455D01*
Y0465110D01*
X0638173Y0465766D01*
X0636862D01*
X0636206Y0465110D01*
X0642765Y0461831D02*
X0640141D01*
X0642765Y0464455D01*
Y0465110D01*
X0642109Y0465766D01*
X0640797D01*
X0640141Y0465110D01*
X0305787Y0451929D02*
Y0455865D01*
X0307755D01*
X0308411Y0455209D01*
Y0453897D01*
X0307755Y0453241D01*
X0305787D01*
X0307099D02*
X0308411Y0451929D01*
X0312347D02*
X0309723D01*
X0312347Y0454553D01*
Y0455209D01*
X0311691Y0455865D01*
X0310379D01*
X0309723Y0455209D01*
X0313659Y0451929D02*
X0314971D01*
X0314315D01*
Y0455865D01*
X0313659Y0455209D01*
X0440118Y0452795D02*
Y0456731D01*
X0442086D01*
X0442742Y0456075D01*
Y0454763D01*
X0442086Y0454107D01*
X0440118D01*
X0441430D02*
X0442742Y0452795D01*
X0446678D02*
X0444054D01*
X0446678Y0455419D01*
Y0456075D01*
X0446022Y0456731D01*
X0444710D01*
X0444054Y0456075D01*
X0447990D02*
X0448646Y0456731D01*
X0449958D01*
X0450613Y0456075D01*
Y0453451D01*
X0449958Y0452795D01*
X0448646D01*
X0447990Y0453451D01*
Y0456075D01*
X0395039Y0452441D02*
Y0456377D01*
X0397007D01*
X0397663Y0455721D01*
Y0454409D01*
X0397007Y0453753D01*
X0395039D01*
X0396351D02*
X0397663Y0452441D01*
X0398975D02*
X0400287D01*
X0399631D01*
Y0456377D01*
X0398975Y0455721D01*
X0402255Y0453097D02*
X0402911Y0452441D01*
X0404223D01*
X0404879Y0453097D01*
Y0455721D01*
X0404223Y0456377D01*
X0402911D01*
X0402255Y0455721D01*
Y0455065D01*
X0402911Y0454409D01*
X0404879D01*
X0334449Y0441260D02*
Y0445196D01*
X0336417D01*
X0337073Y0444540D01*
Y0443228D01*
X0336417Y0442572D01*
X0334449D01*
X0335761D02*
X0337073Y0441260D01*
X0338385D02*
X0339697D01*
X0339040D01*
Y0445196D01*
X0338385Y0444540D01*
X0341664D02*
X0342320Y0445196D01*
X0343632D01*
X0344288Y0444540D01*
Y0443884D01*
X0343632Y0443228D01*
X0344288Y0442572D01*
Y0441916D01*
X0343632Y0441260D01*
X0342320D01*
X0341664Y0441916D01*
Y0442572D01*
X0342320Y0443228D01*
X0341664Y0443884D01*
Y0444540D01*
X0342320Y0443228D02*
X0343632D01*
X0348780Y0441299D02*
Y0445235D01*
X0350747D01*
X0351403Y0444579D01*
Y0443267D01*
X0350747Y0442611D01*
X0348780D01*
X0350091D02*
X0351403Y0441299D01*
X0352715D02*
X0354027D01*
X0353371D01*
Y0445235D01*
X0352715Y0444579D01*
X0355995Y0445235D02*
X0358619D01*
Y0444579D01*
X0355995Y0441955D01*
Y0441299D01*
X0363858Y0441063D02*
Y0444999D01*
X0365826D01*
X0366482Y0444343D01*
Y0443031D01*
X0365826Y0442375D01*
X0363858D01*
X0365170D02*
X0366482Y0441063D01*
X0367794D02*
X0369106D01*
X0368450D01*
Y0444999D01*
X0367794Y0444343D01*
X0373698Y0444999D02*
X0372386Y0444343D01*
X0371074Y0443031D01*
Y0441719D01*
X0371730Y0441063D01*
X0373042D01*
X0373698Y0441719D01*
Y0442375D01*
X0373042Y0443031D01*
X0371074D01*
X0410079Y0452638D02*
Y0456573D01*
X0412047D01*
X0412703Y0455918D01*
Y0454606D01*
X0412047Y0453950D01*
X0410079D01*
X0411391D02*
X0412703Y0452638D01*
X0414014D02*
X0415326D01*
X0414670D01*
Y0456573D01*
X0414014Y0455918D01*
X0419918Y0456573D02*
X0417294D01*
Y0454606D01*
X0418606Y0455262D01*
X0419262D01*
X0419918Y0454606D01*
Y0453294D01*
X0419262Y0452638D01*
X0417950D01*
X0417294Y0453294D01*
X0424843Y0452795D02*
Y0456731D01*
X0426810D01*
X0427466Y0456075D01*
Y0454763D01*
X0426810Y0454107D01*
X0424843D01*
X0426154D02*
X0427466Y0452795D01*
X0428778D02*
X0430090D01*
X0429434D01*
Y0456731D01*
X0428778Y0456075D01*
X0434026Y0452795D02*
Y0456731D01*
X0432058Y0454763D01*
X0434682D01*
X0334370Y0480630D02*
Y0484566D01*
X0336338D01*
X0336994Y0483910D01*
Y0482598D01*
X0336338Y0481942D01*
X0334370D01*
X0335682D02*
X0336994Y0480630D01*
X0338306D02*
X0339618D01*
X0338962D01*
Y0484566D01*
X0338306Y0483910D01*
X0341586D02*
X0342242Y0484566D01*
X0343553D01*
X0344209Y0483910D01*
Y0483254D01*
X0343553Y0482598D01*
X0342898D01*
X0343553D01*
X0344209Y0481942D01*
Y0481286D01*
X0343553Y0480630D01*
X0342242D01*
X0341586Y0481286D01*
X0347441Y0480630D02*
Y0484566D01*
X0349409D01*
X0350065Y0483910D01*
Y0482598D01*
X0349409Y0481942D01*
X0347441D01*
X0348753D02*
X0350065Y0480630D01*
X0351377D02*
X0352689D01*
X0352033D01*
Y0484566D01*
X0351377Y0483910D01*
X0357280Y0480630D02*
X0354657D01*
X0357280Y0483254D01*
Y0483910D01*
X0356624Y0484566D01*
X0355312D01*
X0354657Y0483910D01*
X0361260Y0480590D02*
Y0484526D01*
X0363228D01*
X0363884Y0483870D01*
Y0482558D01*
X0363228Y0481903D01*
X0361260D01*
X0362572D02*
X0363884Y0480590D01*
X0365196D02*
X0366508D01*
X0365851D01*
Y0484526D01*
X0365196Y0483870D01*
X0368475Y0480590D02*
X0369787D01*
X0369131D01*
Y0484526D01*
X0368475Y0483870D01*
X0257598Y0454882D02*
Y0458818D01*
X0259566D01*
X0260222Y0458162D01*
Y0456850D01*
X0259566Y0456194D01*
X0257598D01*
X0258910D02*
X0260222Y0454882D01*
X0261534D02*
X0262846D01*
X0262190D01*
Y0458818D01*
X0261534Y0458162D01*
X0264814D02*
X0265470Y0458818D01*
X0266782D01*
X0267438Y0458162D01*
Y0455538D01*
X0266782Y0454882D01*
X0265470D01*
X0264814Y0455538D01*
Y0458162D01*
X0436575Y0418898D02*
Y0422833D01*
X0438543D01*
X0439199Y0422177D01*
Y0420865D01*
X0438543Y0420210D01*
X0436575D01*
X0437887D02*
X0439199Y0418898D01*
X0440511Y0422177D02*
X0441166Y0422833D01*
X0442478D01*
X0443134Y0422177D01*
Y0421522D01*
X0442478Y0420865D01*
X0443134Y0420210D01*
Y0419554D01*
X0442478Y0418898D01*
X0441166D01*
X0440511Y0419554D01*
Y0420210D01*
X0441166Y0420865D01*
X0440511Y0421522D01*
Y0422177D01*
X0441166Y0420865D02*
X0442478D01*
X0390984Y0419134D02*
Y0423070D01*
X0392952D01*
X0393608Y0422414D01*
Y0421102D01*
X0392952Y0420446D01*
X0390984D01*
X0392296D02*
X0393608Y0419134D01*
X0397544Y0423070D02*
X0396232Y0422414D01*
X0394920Y0421102D01*
Y0419790D01*
X0395576Y0419134D01*
X0396888D01*
X0397544Y0419790D01*
Y0420446D01*
X0396888Y0421102D01*
X0394920D01*
X0231535Y0383937D02*
Y0387873D01*
X0233503D01*
X0234159Y0387217D01*
Y0385905D01*
X0233503Y0385249D01*
X0231535D01*
X0232847D02*
X0234159Y0383937D01*
X0238095Y0387873D02*
X0235471D01*
Y0385905D01*
X0236783Y0386561D01*
X0237439D01*
X0238095Y0385905D01*
Y0384593D01*
X0237439Y0383937D01*
X0236127D01*
X0235471Y0384593D01*
X0406142Y0419213D02*
Y0423148D01*
X0408110D01*
X0408766Y0422492D01*
Y0421180D01*
X0408110Y0420525D01*
X0406142D01*
X0407454D02*
X0408766Y0419213D01*
X0410077Y0422492D02*
X0410733Y0423148D01*
X0412045D01*
X0412701Y0422492D01*
Y0421836D01*
X0412045Y0421180D01*
X0411389D01*
X0412045D01*
X0412701Y0420525D01*
Y0419869D01*
X0412045Y0419213D01*
X0410733D01*
X0410077Y0419869D01*
X0421575Y0418898D02*
Y0422833D01*
X0423543D01*
X0424199Y0422177D01*
Y0420865D01*
X0423543Y0420210D01*
X0421575D01*
X0422887D02*
X0424199Y0418898D01*
X0425511D02*
X0426823D01*
X0426166D01*
Y0422833D01*
X0425511Y0422177D01*
X0644921Y0391693D02*
Y0395629D01*
X0646889D01*
X0647545Y0394973D01*
Y0393661D01*
X0646889Y0393005D01*
X0644921D01*
X0651481Y0395629D02*
X0650169Y0394973D01*
X0648857Y0393661D01*
Y0392349D01*
X0649513Y0391693D01*
X0650825D01*
X0651481Y0392349D01*
Y0393005D01*
X0650825Y0393661D01*
X0648857D01*
X0152598Y0384449D02*
Y0388385D01*
X0154566D01*
X0155222Y0387729D01*
Y0386417D01*
X0154566Y0385761D01*
X0152598D01*
X0158502Y0384449D02*
Y0388385D01*
X0156534Y0386417D01*
X0159158D01*
X0605551Y0382716D02*
Y0386652D01*
X0607519D01*
X0608175Y0385996D01*
Y0384684D01*
X0607519Y0384029D01*
X0605551D01*
X0609487Y0385996D02*
X0610143Y0386652D01*
X0611455D01*
X0612111Y0385996D01*
Y0385340D01*
X0611455Y0384684D01*
X0610799D01*
X0611455D01*
X0612111Y0384029D01*
Y0383372D01*
X0611455Y0382716D01*
X0610143D01*
X0609487Y0383372D01*
X0194331Y0412126D02*
Y0416062D01*
X0196299D01*
X0196955Y0415406D01*
Y0414094D01*
X0196299Y0413438D01*
X0194331D01*
X0200890Y0412126D02*
X0198266D01*
X0200890Y0414750D01*
Y0415406D01*
X0200234Y0416062D01*
X0198922D01*
X0198266Y0415406D01*
X0193504Y0422441D02*
Y0426377D01*
X0195472D01*
X0196128Y0425721D01*
Y0424409D01*
X0195472Y0423753D01*
X0193504D01*
X0197440Y0422441D02*
X0198752D01*
X0198096D01*
Y0426377D01*
X0197440Y0425721D01*
X0659238Y0481377D02*
X0657926D01*
X0658582D01*
Y0478097D01*
X0657926Y0477441D01*
X0657270D01*
X0656614Y0478097D01*
X0660550Y0480721D02*
X0661206Y0481377D01*
X0662518D01*
X0663174Y0480721D01*
Y0480065D01*
X0662518Y0479409D01*
X0661862D01*
X0662518D01*
X0663174Y0478753D01*
Y0478097D01*
X0662518Y0477441D01*
X0661206D01*
X0660550Y0478097D01*
X0296206Y0480867D02*
X0294895D01*
X0295551D01*
Y0477587D01*
X0294895Y0476931D01*
X0294239D01*
X0293583Y0477587D01*
X0300142Y0476931D02*
X0297518D01*
X0300142Y0479555D01*
Y0480211D01*
X0299486Y0480867D01*
X0298174D01*
X0297518Y0480211D01*
X0231915Y0418857D02*
X0230603D01*
X0231259D01*
Y0415577D01*
X0230603Y0414921D01*
X0229947D01*
X0229291Y0415577D01*
X0233227Y0414921D02*
X0234539D01*
X0233883D01*
Y0418857D01*
X0233227Y0418201D01*
X0210433Y0389684D02*
Y0385748D01*
X0212401D01*
X0213057Y0386404D01*
Y0389028D01*
X0212401Y0389684D01*
X0210433D01*
X0214369Y0385748D02*
X0215681D01*
X0215025D01*
Y0389684D01*
X0214369Y0389028D01*
D12*
X0252992Y0413917D02*
G03*
X0252992Y0418839I0000000J0002461D01*
G01*
X0656213Y0412839D02*
X0667816D01*
X0656655Y0447878D02*
X0667993D01*
X0679155Y0412839D02*
X0693429D01*
Y0447878D01*
X0613937Y0476929D02*
X0625354D01*
Y0482244D01*
X0613937D02*
X0625354D01*
X0613937Y0476929D02*
Y0482244D01*
X0264567Y0477283D02*
X0275984D01*
Y0482598D01*
X0264567D02*
X0275984D01*
X0264567Y0477283D02*
Y0482598D01*
X0351496Y0425472D02*
X0357992D01*
X0355354Y0377165D02*
Y0383937D01*
X0351417Y0380472D02*
X0359331D01*
X0348307Y0394094D02*
Y0419842D01*
Y0394094D02*
X0355236Y0387165D01*
X0374213D01*
X0380984Y0393937D01*
Y0419842D01*
X0348307D02*
X0380984D01*
X0645413Y0466398D02*
X0656831D01*
X0645413Y0461083D02*
Y0466398D01*
Y0461083D02*
X0656831D01*
Y0466398D01*
X0644724Y0483189D02*
X0655118D01*
X0644724Y0468976D02*
X0655118D01*
Y0483189D01*
X0644724Y0468976D02*
Y0483189D01*
X0623032Y0390984D02*
Y0400984D01*
X0643032D01*
Y0390984D02*
Y0400984D01*
X0623032Y0390984D02*
X0643032D01*
X0583189Y0390787D02*
X0594252D01*
Y0393347D01*
X0603819D01*
Y0390866D02*
Y0393347D01*
Y0390866D02*
X0614606D01*
X0583189Y0390787D02*
Y0468937D01*
X0614528D01*
X0614606Y0468858D01*
Y0390866D02*
Y0468858D01*
X0428622Y0417283D02*
Y0428701D01*
Y0417283D02*
X0433937D01*
Y0428701D01*
X0428622D02*
X0433937D01*
X0413937Y0417126D02*
Y0428543D01*
Y0417126D02*
X0419252D01*
Y0428543D01*
X0413937D02*
X0419252D01*
X0399173Y0417205D02*
Y0428622D01*
Y0417205D02*
X0404488D01*
Y0428622D01*
X0399173D02*
X0404488D01*
X0444803Y0417244D02*
Y0428661D01*
Y0417244D02*
X0450118D01*
Y0428661D01*
X0444803D02*
X0450118D01*
X0433976Y0439488D02*
Y0450906D01*
X0428661D02*
X0433976D01*
X0428661Y0439488D02*
Y0450906D01*
Y0439488D02*
X0433976D01*
X0419291D02*
Y0450906D01*
X0413976D02*
X0419291D01*
X0413976Y0439488D02*
Y0450906D01*
Y0439488D02*
X0419291D01*
X0450118Y0439291D02*
Y0450709D01*
X0444803D02*
X0450118D01*
X0444803Y0439291D02*
Y0450709D01*
Y0439291D02*
X0450118D01*
X0399173D02*
Y0450709D01*
Y0439291D02*
X0404488D01*
Y0450709D01*
X0399173D02*
X0404488D01*
X0362087Y0467323D02*
Y0478740D01*
Y0467323D02*
X0367402D01*
Y0478740D01*
X0362087D02*
X0367402D01*
X0350591Y0467362D02*
Y0478780D01*
Y0467362D02*
X0355906D01*
Y0478780D01*
X0350591D02*
X0355906D01*
X0339055Y0467402D02*
Y0478819D01*
Y0467402D02*
X0344370D01*
Y0478819D01*
X0339055D02*
X0344370D01*
X0362047Y0447402D02*
Y0458819D01*
Y0447402D02*
X0367362D01*
Y0458819D01*
X0362047D02*
X0367362D01*
X0350591Y0447402D02*
Y0458819D01*
Y0447402D02*
X0355906D01*
Y0458819D01*
X0350591D02*
X0355906D01*
X0339055Y0447362D02*
Y0458779D01*
Y0447362D02*
X0344370D01*
Y0458779D01*
X0339055D02*
X0344370D01*
X0302047Y0481496D02*
X0312441D01*
X0302047Y0467283D02*
X0312441D01*
Y0481496D01*
X0302047Y0467283D02*
Y0481496D01*
X0257677Y0460906D02*
X0269094D01*
Y0466221D01*
X0257677D02*
X0269094D01*
X0257677Y0460906D02*
Y0466221D01*
X0304764Y0457559D02*
X0316181D01*
Y0462874D01*
X0304764D02*
X0316181D01*
X0304764Y0457559D02*
Y0462874D01*
X0252992Y0385287D02*
X0332413D01*
Y0447287D01*
X0252992D02*
X0332413D01*
X0252992Y0418839D02*
Y0447287D01*
Y0385287D02*
Y0413917D01*
X0260413Y0400287D02*
X0285913D01*
Y0433287D01*
X0260413D02*
X0285913D01*
X0260413Y0400287D02*
Y0433287D01*
X0210039Y0410630D02*
X0219488D01*
X0210039Y0392284D02*
X0219488D01*
Y0410630D01*
X0210039Y0392284D02*
Y0410630D01*
X0229134Y0409567D02*
Y0412323D01*
X0233071D01*
X0229134Y0400512D02*
Y0403268D01*
Y0400512D02*
X0233071D01*
X0193032Y0410787D02*
X0203031D01*
Y0390787D02*
Y0410787D01*
X0193032Y0390787D02*
X0203031D01*
X0193032D02*
Y0410787D01*
X0151772Y0390827D02*
X0162835D01*
Y0393386D01*
X0172402D01*
Y0390905D02*
Y0393386D01*
Y0390905D02*
X0183189D01*
X0151772Y0390827D02*
Y0468976D01*
X0183110D01*
X0183189Y0468898D01*
Y0390905D02*
Y0468898D01*
X0226496Y0395079D02*
X0237913D01*
X0226496Y0389764D02*
Y0395079D01*
Y0389764D02*
X0237913D01*
Y0395079D01*
X0192638Y0428071D02*
X0202638D01*
X0192638D02*
Y0468071D01*
X0202638Y0428071D02*
Y0468071D01*
X0192638D02*
X0202638D01*
X0394449Y0465433D02*
Y0471337D01*
X0396417Y0469369D01*
X0398384Y0471337D01*
Y0465433D01*
X0400352Y0471337D02*
Y0466417D01*
X0401336Y0465433D01*
X0403304D01*
X0404288Y0466417D01*
Y0471337D01*
X0406256D02*
Y0465433D01*
X0410192D01*
X0412160Y0471337D02*
X0416095D01*
X0414127D01*
Y0465433D01*
X0418063Y0471337D02*
X0420031D01*
X0419047D01*
Y0465433D01*
X0418063D01*
X0420031D01*
X0422983D02*
Y0471337D01*
X0425935D01*
X0426919Y0470353D01*
Y0468385D01*
X0425935Y0467401D01*
X0422983D01*
X0428887Y0471337D02*
Y0465433D01*
X0432822D01*
X0438726Y0471337D02*
X0434790D01*
Y0465433D01*
X0438726D01*
X0434790Y0468385D02*
X0436758D01*
X0440694Y0471337D02*
X0444629Y0465433D01*
Y0471337D02*
X0440694Y0465433D01*
X0446597Y0471337D02*
X0448565D01*
X0447581D01*
Y0465433D01*
X0446597D01*
X0448565D01*
X0451517D02*
Y0471337D01*
X0455453Y0465433D01*
Y0471337D01*
X0461356Y0470353D02*
X0460372Y0471337D01*
X0458404D01*
X0457421Y0470353D01*
Y0466417D01*
X0458404Y0465433D01*
X0460372D01*
X0461356Y0466417D01*
Y0468385D01*
X0459388D01*
X0473164Y0470353D02*
X0472180Y0471337D01*
X0470212D01*
X0469228Y0470353D01*
Y0466417D01*
X0470212Y0465433D01*
X0472180D01*
X0473164Y0466417D01*
Y0468385D01*
X0471196D01*
X0475131Y0465433D02*
Y0471337D01*
X0478083D01*
X0479067Y0470353D01*
Y0468385D01*
X0478083Y0467401D01*
X0475131D01*
X0477099D02*
X0479067Y0465433D01*
X0481035Y0471337D02*
X0483003D01*
X0482019D01*
Y0465433D01*
X0481035D01*
X0483003D01*
X0485955Y0471337D02*
Y0465433D01*
X0488906D01*
X0489890Y0466417D01*
Y0470353D01*
X0488906Y0471337D01*
X0485955D01*
D13*
X0218858Y0411969D02*
G03*
X0218858Y0411969I-0000197J0000000D01*
G01*
D14*
X0616221Y0461456D02*
X0618057D01*
X0617139Y0462374D02*
Y0460538D01*
X0620812Y0462833D02*
X0618975D01*
Y0461456D01*
X0619894Y0461915D01*
X0620353D01*
X0620812Y0461456D01*
Y0460538D01*
X0620353Y0460078D01*
X0619435D01*
X0618975Y0460538D01*
X0621731Y0462833D02*
Y0460997D01*
X0622649Y0460078D01*
X0623567Y0460997D01*
Y0462833D01*
X0616221Y0453387D02*
Y0450632D01*
X0617598D01*
X0618057Y0451091D01*
Y0452928D01*
X0617598Y0453387D01*
X0616221D01*
X0618975D02*
X0619894D01*
X0619435D01*
Y0450632D01*
X0618975D01*
X0619894D01*
X0621271D02*
Y0453387D01*
X0622649D01*
X0623108Y0452928D01*
Y0452009D01*
X0622649Y0451550D01*
X0621271D01*
X0622190D02*
X0623108Y0450632D01*
X0625863D02*
X0624026D01*
X0625863Y0452468D01*
Y0452928D01*
X0625404Y0453387D01*
X0624485D01*
X0624026Y0452928D01*
X0616221Y0443940D02*
Y0441185D01*
X0617598D01*
X0618057Y0441644D01*
Y0443481D01*
X0617598Y0443940D01*
X0616221D01*
X0618975D02*
X0619894D01*
X0619435D01*
Y0441185D01*
X0618975D01*
X0619894D01*
X0621271D02*
Y0443940D01*
X0622649D01*
X0623108Y0443481D01*
Y0442563D01*
X0622649Y0442103D01*
X0621271D01*
X0622190D02*
X0623108Y0441185D01*
X0624026D02*
X0624945D01*
X0624485D01*
Y0443940D01*
X0624026Y0443481D01*
X0618057Y0434034D02*
X0617598Y0434494D01*
X0616680D01*
X0616221Y0434034D01*
Y0433575D01*
X0616680Y0433116D01*
X0617598D01*
X0618057Y0432657D01*
Y0432198D01*
X0617598Y0431739D01*
X0616680D01*
X0616221Y0432198D01*
X0618975Y0431739D02*
X0619894D01*
X0619435D01*
Y0434494D01*
X0618975D01*
X0622649Y0431739D02*
X0621731D01*
X0621271Y0432198D01*
Y0433116D01*
X0621731Y0433575D01*
X0622649D01*
X0623108Y0433116D01*
Y0432657D01*
X0621271D01*
X0625404Y0431739D02*
X0624485D01*
X0624026Y0432198D01*
Y0433116D01*
X0624485Y0433575D01*
X0625404D01*
X0625863Y0433116D01*
Y0432657D01*
X0624026D01*
X0626781Y0430820D02*
Y0433575D01*
X0628159D01*
X0628618Y0433116D01*
Y0432198D01*
X0628159Y0431739D01*
X0626781D01*
X0618057Y0423669D02*
X0617598Y0424129D01*
X0616680D01*
X0616221Y0423669D01*
Y0423210D01*
X0616680Y0422751D01*
X0617598D01*
X0618057Y0422292D01*
Y0421833D01*
X0617598Y0421374D01*
X0616680D01*
X0616221Y0421833D01*
X0618975Y0424129D02*
X0620812D01*
X0619894D01*
Y0421374D01*
X0621731D02*
Y0424129D01*
X0623108D01*
X0623567Y0423669D01*
Y0422751D01*
X0623108Y0422292D01*
X0621731D01*
X0626322Y0421374D02*
X0624485D01*
X0626322Y0423210D01*
Y0423669D01*
X0625863Y0424129D01*
X0624945D01*
X0624485Y0423669D01*
X0618057Y0414223D02*
X0617598Y0414682D01*
X0616680D01*
X0616221Y0414223D01*
Y0413764D01*
X0616680Y0413304D01*
X0617598D01*
X0618057Y0412845D01*
Y0412386D01*
X0617598Y0411927D01*
X0616680D01*
X0616221Y0412386D01*
X0618975Y0414682D02*
X0620812D01*
X0619894D01*
Y0411927D01*
X0621731D02*
Y0414682D01*
X0623108D01*
X0623567Y0414223D01*
Y0413304D01*
X0623108Y0412845D01*
X0621731D01*
X0624485Y0411927D02*
X0625404D01*
X0624945D01*
Y0414682D01*
X0624485Y0414223D01*
X0616221Y0403858D02*
X0618057D01*
X0617139Y0404776D02*
Y0402940D01*
X0618975Y0404776D02*
X0619435Y0405235D01*
X0620353D01*
X0620812Y0404776D01*
Y0404317D01*
X0620353Y0403858D01*
X0619894D01*
X0620353D01*
X0620812Y0403399D01*
Y0402940D01*
X0620353Y0402480D01*
X0619435D01*
X0618975Y0402940D01*
X0621731Y0405235D02*
Y0403399D01*
X0622649Y0402480D01*
X0623567Y0403399D01*
Y0405235D01*
X0624485Y0404776D02*
X0624945Y0405235D01*
X0625863D01*
X0626322Y0404776D01*
Y0404317D01*
X0625863Y0403858D01*
X0625404D01*
X0625863D01*
X0626322Y0403399D01*
Y0402940D01*
X0625863Y0402480D01*
X0624945D01*
X0624485Y0402940D01*
X0566462Y0457489D02*
X0566003Y0457948D01*
X0565085D01*
X0564625Y0457489D01*
Y0455652D01*
X0565085Y0455193D01*
X0566003D01*
X0566462Y0455652D01*
Y0456570D01*
X0565544D01*
X0567380Y0455193D02*
Y0457948D01*
X0569217Y0455193D01*
Y0457948D01*
X0570135D02*
Y0455193D01*
X0571513D01*
X0571972Y0455652D01*
Y0457489D01*
X0571513Y0457948D01*
X0570135D01*
X0566462Y0448501D02*
X0564625D01*
Y0445746D01*
X0566462D01*
X0564625Y0447124D02*
X0565544D01*
X0567380Y0445287D02*
X0569217D01*
X0571972Y0448042D02*
X0571513Y0448501D01*
X0570595D01*
X0570135Y0448042D01*
Y0447583D01*
X0570595Y0447124D01*
X0571513D01*
X0571972Y0446665D01*
Y0446205D01*
X0571513Y0445746D01*
X0570595D01*
X0570135Y0446205D01*
X0572890Y0448501D02*
Y0445746D01*
X0573809Y0446665D01*
X0574727Y0445746D01*
Y0448501D01*
X0577023Y0445746D02*
Y0448501D01*
X0575645Y0447124D01*
X0577482D01*
X0566462Y0438595D02*
X0564625D01*
Y0435840D01*
X0566462D01*
X0564625Y0437218D02*
X0565544D01*
X0567380Y0435381D02*
X0569217D01*
X0571972Y0438136D02*
X0571513Y0438595D01*
X0570595D01*
X0570135Y0438136D01*
Y0437677D01*
X0570595Y0437218D01*
X0571513D01*
X0571972Y0436759D01*
Y0436300D01*
X0571513Y0435840D01*
X0570595D01*
X0570135Y0436300D01*
X0572890Y0438595D02*
Y0435840D01*
X0573809Y0436759D01*
X0574727Y0435840D01*
Y0438595D01*
X0575645Y0438136D02*
X0576105Y0438595D01*
X0577023D01*
X0577482Y0438136D01*
Y0437677D01*
X0577023Y0437218D01*
X0576564D01*
X0577023D01*
X0577482Y0436759D01*
Y0436300D01*
X0577023Y0435840D01*
X0576105D01*
X0575645Y0436300D01*
X0566462Y0428690D02*
X0564625D01*
Y0425935D01*
X0566462D01*
X0564625Y0427312D02*
X0565544D01*
X0567380Y0425475D02*
X0569217D01*
X0571972Y0428230D02*
X0571513Y0428690D01*
X0570595D01*
X0570135Y0428230D01*
Y0427771D01*
X0570595Y0427312D01*
X0571513D01*
X0571972Y0426853D01*
Y0426394D01*
X0571513Y0425935D01*
X0570595D01*
X0570135Y0426394D01*
X0572890Y0428690D02*
Y0425935D01*
X0573809Y0426853D01*
X0574727Y0425935D01*
Y0428690D01*
X0577482Y0425935D02*
X0575645D01*
X0577482Y0427771D01*
Y0428230D01*
X0577023Y0428690D01*
X0576105D01*
X0575645Y0428230D01*
X0566462Y0418784D02*
X0564625D01*
Y0416029D01*
X0566462D01*
X0564625Y0417406D02*
X0565544D01*
X0567380Y0415570D02*
X0569217D01*
X0571972Y0418325D02*
X0571513Y0418784D01*
X0570595D01*
X0570135Y0418325D01*
Y0417866D01*
X0570595Y0417406D01*
X0571513D01*
X0571972Y0416947D01*
Y0416488D01*
X0571513Y0416029D01*
X0570595D01*
X0570135Y0416488D01*
X0572890Y0418784D02*
Y0416029D01*
X0573809Y0416947D01*
X0574727Y0416029D01*
Y0418784D01*
X0575645Y0416029D02*
X0576564D01*
X0576105D01*
Y0418784D01*
X0575645Y0418325D01*
X0566462Y0408878D02*
X0564625D01*
Y0407501D01*
X0565544D01*
X0564625D01*
Y0406123D01*
X0567380D02*
Y0407960D01*
X0568299Y0408878D01*
X0569217Y0407960D01*
Y0406123D01*
Y0407501D01*
X0567380D01*
X0570135Y0406123D02*
Y0408878D01*
X0571972Y0406123D01*
Y0408878D01*
X0564625Y0398054D02*
X0566462D01*
X0565544Y0398972D02*
Y0397135D01*
X0567380Y0396676D02*
X0568299D01*
X0567839D01*
Y0399431D01*
X0567380Y0398972D01*
X0571513Y0396676D02*
X0569676D01*
X0571513Y0398513D01*
Y0398972D01*
X0571054Y0399431D01*
X0570135D01*
X0569676Y0398972D01*
X0572431Y0399431D02*
Y0397595D01*
X0573350Y0396676D01*
X0574268Y0397595D01*
Y0399431D01*
X0206915Y0460820D02*
X0205079D01*
X0206915Y0462657D01*
Y0463116D01*
X0206456Y0463575D01*
X0205538D01*
X0205079Y0463116D01*
X0207834Y0463575D02*
Y0460820D01*
X0209211D01*
X0209670Y0461279D01*
Y0461739D01*
X0209211Y0462198D01*
X0207834D01*
X0209211D01*
X0209670Y0462657D01*
Y0463116D01*
X0209211Y0463575D01*
X0207834D01*
X0205079Y0451374D02*
X0205997D01*
X0205538D01*
Y0454129D01*
X0205079Y0453669D01*
X0207375Y0454129D02*
Y0451374D01*
X0208752D01*
X0209211Y0451833D01*
Y0452292D01*
X0208752Y0452751D01*
X0207375D01*
X0208752D01*
X0209211Y0453210D01*
Y0453669D01*
X0208752Y0454129D01*
X0207375D01*
X0205079Y0441927D02*
X0205997D01*
X0205538D01*
Y0444682D01*
X0205079Y0444223D01*
X0207375Y0441927D02*
Y0443764D01*
X0208293Y0444682D01*
X0209211Y0443764D01*
Y0441927D01*
Y0443304D01*
X0207375D01*
X0206915Y0432480D02*
X0205079D01*
X0206915Y0434317D01*
Y0434776D01*
X0206456Y0435235D01*
X0205538D01*
X0205079Y0434776D01*
X0207834Y0432480D02*
Y0434317D01*
X0208752Y0435235D01*
X0209670Y0434317D01*
Y0432480D01*
Y0433858D01*
X0207834D01*
X0138215Y0457978D02*
X0137755Y0458437D01*
X0136837D01*
X0136378Y0457978D01*
Y0456141D01*
X0136837Y0455682D01*
X0137755D01*
X0138215Y0456141D01*
Y0457059D01*
X0137296D01*
X0139133Y0455682D02*
Y0458437D01*
X0140970Y0455682D01*
Y0458437D01*
X0141888D02*
Y0455682D01*
X0143265D01*
X0143725Y0456141D01*
Y0457978D01*
X0143265Y0458437D01*
X0141888D01*
X0138215Y0448990D02*
X0136378D01*
Y0446235D01*
X0138215D01*
X0136378Y0447613D02*
X0137296D01*
X0139133Y0445776D02*
X0140970D01*
X0143725Y0448531D02*
X0143265Y0448990D01*
X0142347D01*
X0141888Y0448531D01*
Y0448072D01*
X0142347Y0447613D01*
X0143265D01*
X0143725Y0447154D01*
Y0446694D01*
X0143265Y0446235D01*
X0142347D01*
X0141888Y0446694D01*
X0144643Y0448990D02*
Y0446235D01*
X0145561Y0447154D01*
X0146480Y0446235D01*
Y0448990D01*
X0148775Y0446235D02*
Y0448990D01*
X0147398Y0447613D01*
X0149235D01*
X0138215Y0439084D02*
X0136378D01*
Y0436329D01*
X0138215D01*
X0136378Y0437707D02*
X0137296D01*
X0139133Y0435870D02*
X0140970D01*
X0143725Y0438625D02*
X0143265Y0439084D01*
X0142347D01*
X0141888Y0438625D01*
Y0438166D01*
X0142347Y0437707D01*
X0143265D01*
X0143725Y0437248D01*
Y0436789D01*
X0143265Y0436329D01*
X0142347D01*
X0141888Y0436789D01*
X0144643Y0439084D02*
Y0436329D01*
X0145561Y0437248D01*
X0146480Y0436329D01*
Y0439084D01*
X0147398Y0438625D02*
X0147857Y0439084D01*
X0148775D01*
X0149235Y0438625D01*
Y0438166D01*
X0148775Y0437707D01*
X0148316D01*
X0148775D01*
X0149235Y0437248D01*
Y0436789D01*
X0148775Y0436329D01*
X0147857D01*
X0147398Y0436789D01*
X0138215Y0429179D02*
X0136378D01*
Y0426424D01*
X0138215D01*
X0136378Y0427801D02*
X0137296D01*
X0139133Y0425964D02*
X0140970D01*
X0143725Y0428719D02*
X0143265Y0429179D01*
X0142347D01*
X0141888Y0428719D01*
Y0428260D01*
X0142347Y0427801D01*
X0143265D01*
X0143725Y0427342D01*
Y0426883D01*
X0143265Y0426424D01*
X0142347D01*
X0141888Y0426883D01*
X0144643Y0429179D02*
Y0426424D01*
X0145561Y0427342D01*
X0146480Y0426424D01*
Y0429179D01*
X0149235Y0426424D02*
X0147398D01*
X0149235Y0428260D01*
Y0428719D01*
X0148775Y0429179D01*
X0147857D01*
X0147398Y0428719D01*
X0138215Y0419273D02*
X0136378D01*
Y0416518D01*
X0138215D01*
X0136378Y0417895D02*
X0137296D01*
X0139133Y0416059D02*
X0140970D01*
X0143725Y0418814D02*
X0143265Y0419273D01*
X0142347D01*
X0141888Y0418814D01*
Y0418355D01*
X0142347Y0417895D01*
X0143265D01*
X0143725Y0417436D01*
Y0416977D01*
X0143265Y0416518D01*
X0142347D01*
X0141888Y0416977D01*
X0144643Y0419273D02*
Y0416518D01*
X0145561Y0417436D01*
X0146480Y0416518D01*
Y0419273D01*
X0147398Y0416518D02*
X0148316D01*
X0147857D01*
Y0419273D01*
X0147398Y0418814D01*
X0138215Y0409367D02*
X0136378D01*
Y0407990D01*
X0137296D01*
X0136378D01*
Y0406612D01*
X0139133D02*
Y0408449D01*
X0140051Y0409367D01*
X0140970Y0408449D01*
Y0406612D01*
Y0407990D01*
X0139133D01*
X0141888Y0406612D02*
Y0409367D01*
X0143725Y0406612D01*
Y0409367D01*
X0136378Y0398543D02*
X0138215D01*
X0137296Y0399461D02*
Y0397624D01*
X0139133Y0397165D02*
X0140051D01*
X0139592D01*
Y0399920D01*
X0139133Y0399461D01*
X0143265Y0397165D02*
X0141429D01*
X0143265Y0399002D01*
Y0399461D01*
X0142806Y0399920D01*
X0141888D01*
X0141429Y0399461D01*
X0144184Y0399920D02*
Y0398084D01*
X0145102Y0397165D01*
X0146020Y0398084D01*
Y0399920D01*
X0374120Y0477609D02*
X0373661Y0478068D01*
X0372743D01*
X0372283Y0477609D01*
Y0477149D01*
X0372743Y0476690D01*
X0373661D01*
X0374120Y0476231D01*
Y0475772D01*
X0373661Y0475313D01*
X0372743D01*
X0372283Y0475772D01*
X0375039Y0478068D02*
X0376875D01*
X0375957D01*
Y0475313D01*
X0379630Y0478068D02*
X0377794D01*
Y0475313D01*
X0379630D01*
X0377794Y0476690D02*
X0378712D01*
X0380549Y0475313D02*
Y0478068D01*
X0381926D01*
X0382385Y0477609D01*
Y0476690D01*
X0381926Y0476231D01*
X0380549D01*
X0372283Y0473345D02*
X0373202D01*
X0372743D01*
Y0470589D01*
X0372283D01*
X0373202D01*
X0374579D02*
Y0473345D01*
X0376416Y0470589D01*
Y0473345D01*
X0377334D02*
Y0470589D01*
X0378712D01*
X0379171Y0471049D01*
Y0472885D01*
X0378712Y0473345D01*
X0377334D01*
X0381926D02*
X0380089D01*
Y0470589D01*
X0381926D01*
X0380089Y0471967D02*
X0381008D01*
X0382844Y0473345D02*
X0384681Y0470589D01*
Y0473345D02*
X0382844Y0470589D01*
X0387436Y0473345D02*
X0385599D01*
Y0470589D01*
X0387436D01*
X0385599Y0471967D02*
X0386518D01*
X0388354Y0470589D02*
Y0473345D01*
X0389732D01*
X0390191Y0472885D01*
Y0471967D01*
X0389732Y0471508D01*
X0388354D01*
X0389273D02*
X0390191Y0470589D01*
X0374120Y0468162D02*
X0373661Y0468621D01*
X0372743D01*
X0372283Y0468162D01*
Y0466325D01*
X0372743Y0465866D01*
X0373661D01*
X0374120Y0466325D01*
Y0467244D01*
X0373202D01*
X0375039Y0465866D02*
Y0468621D01*
X0376416D01*
X0376875Y0468162D01*
Y0467244D01*
X0376416Y0466784D01*
X0375039D01*
X0375957D02*
X0376875Y0465866D01*
X0377794Y0468621D02*
X0378712D01*
X0378253D01*
Y0465866D01*
X0377794D01*
X0378712D01*
X0380089Y0468621D02*
Y0465866D01*
X0381467D01*
X0381926Y0466325D01*
Y0468162D01*
X0381467Y0468621D01*
X0380089D01*
X0192756Y0475314D02*
Y0478069D01*
X0193674Y0477150D01*
X0194593Y0478069D01*
Y0475314D01*
X0196888Y0478069D02*
X0195970D01*
X0195511Y0477610D01*
Y0475773D01*
X0195970Y0475314D01*
X0196888D01*
X0197348Y0475773D01*
Y0477610D01*
X0196888Y0478069D01*
X0198266D02*
X0200103D01*
X0199184D01*
Y0475314D01*
X0202398Y0478069D02*
X0201480D01*
X0201021Y0477610D01*
Y0475773D01*
X0201480Y0475314D01*
X0202398D01*
X0202858Y0475773D01*
Y0477610D01*
X0202398Y0478069D01*
X0203776Y0475314D02*
Y0478069D01*
X0205153D01*
X0205613Y0477610D01*
Y0476691D01*
X0205153Y0476232D01*
X0203776D01*
X0204694D02*
X0205613Y0475314D01*
X0209286Y0478069D02*
Y0475314D01*
X0210664D01*
X0211123Y0475773D01*
Y0477610D01*
X0210664Y0478069D01*
X0209286D01*
X0212041Y0475314D02*
Y0478069D01*
X0213419D01*
X0213878Y0477610D01*
Y0476691D01*
X0213419Y0476232D01*
X0212041D01*
X0212959D02*
X0213878Y0475314D01*
X0214796Y0478069D02*
X0215714D01*
X0215255D01*
Y0475314D01*
X0214796D01*
X0215714D01*
X0217092Y0478069D02*
Y0476232D01*
X0218010Y0475314D01*
X0218929Y0476232D01*
Y0478069D01*
X0221684D02*
X0219847D01*
Y0475314D01*
X0221684D01*
X0219847Y0476691D02*
X0220765D01*
X0222602Y0475314D02*
Y0478069D01*
X0223979D01*
X0224439Y0477610D01*
Y0476691D01*
X0223979Y0476232D01*
X0222602D01*
X0223520D02*
X0224439Y0475314D01*
X0194593Y0472886D02*
X0194133Y0473346D01*
X0193215D01*
X0192756Y0472886D01*
Y0471050D01*
X0193215Y0470590D01*
X0194133D01*
X0194593Y0471050D01*
X0196888Y0473346D02*
X0195970D01*
X0195511Y0472886D01*
Y0471050D01*
X0195970Y0470590D01*
X0196888D01*
X0197348Y0471050D01*
Y0472886D01*
X0196888Y0473346D01*
X0198266Y0470590D02*
Y0473346D01*
X0200103Y0470590D01*
Y0473346D01*
X0201021Y0470590D02*
Y0473346D01*
X0202858Y0470590D01*
Y0473346D01*
X0205613D02*
X0203776D01*
Y0470590D01*
X0205613D01*
X0203776Y0471968D02*
X0204694D01*
X0208368Y0472886D02*
X0207909Y0473346D01*
X0206990D01*
X0206531Y0472886D01*
Y0471050D01*
X0206990Y0470590D01*
X0207909D01*
X0208368Y0471050D01*
X0209286Y0473346D02*
X0211123D01*
X0210204D01*
Y0470590D01*
X0213419Y0473346D02*
X0212500D01*
X0212041Y0472886D01*
Y0471050D01*
X0212500Y0470590D01*
X0213419D01*
X0213878Y0471050D01*
Y0472886D01*
X0213419Y0473346D01*
X0214796Y0470590D02*
Y0473346D01*
X0216174D01*
X0216633Y0472886D01*
Y0471968D01*
X0216174Y0471509D01*
X0214796D01*
X0215714D02*
X0216633Y0470590D01*
X0624632Y0388004D02*
X0624173Y0388464D01*
X0623254D01*
X0622795Y0388004D01*
Y0386168D01*
X0623254Y0385709D01*
X0624173D01*
X0624632Y0386168D01*
Y0387086D01*
X0623714D01*
X0625550Y0385709D02*
Y0388464D01*
X0627387Y0385709D01*
Y0388464D01*
X0628305D02*
Y0385709D01*
X0629683D01*
X0630142Y0386168D01*
Y0388004D01*
X0629683Y0388464D01*
X0628305D01*
X0633815Y0387086D02*
X0635652D01*
X0634734Y0388004D02*
Y0386168D01*
X0636570Y0385709D02*
X0637489D01*
X0637030D01*
Y0388464D01*
X0636570Y0388004D01*
X0640703Y0385709D02*
X0638866D01*
X0640703Y0387545D01*
Y0388004D01*
X0640244Y0388464D01*
X0639325D01*
X0638866Y0388004D01*
X0641621Y0388464D02*
Y0386627D01*
X0642540Y0385709D01*
X0643458Y0386627D01*
Y0388464D01*
X0186536Y0461221D02*
Y0463057D01*
X0185617Y0462139D02*
X0187454D01*
X0185158Y0465812D02*
Y0463975D01*
X0186536D01*
X0186077Y0464894D01*
Y0465353D01*
X0186536Y0465812D01*
X0187454D01*
X0187913Y0465353D01*
Y0464435D01*
X0187454Y0463975D01*
X0185158Y0466730D02*
X0186995D01*
X0187913Y0467649D01*
X0186995Y0468567D01*
X0185158D01*
X0184725Y0449331D02*
X0187480D01*
Y0450708D01*
X0187021Y0451167D01*
X0185185D01*
X0184725Y0450708D01*
Y0449331D01*
Y0452086D02*
Y0453004D01*
Y0452545D01*
X0187480D01*
Y0452086D01*
Y0453004D01*
Y0454382D02*
X0184725D01*
Y0455759D01*
X0185185Y0456218D01*
X0186103D01*
X0186562Y0455759D01*
Y0454382D01*
Y0455300D02*
X0187480Y0456218D01*
Y0458973D02*
Y0457137D01*
X0185644Y0458973D01*
X0185185D01*
X0184725Y0458514D01*
Y0457596D01*
X0185185Y0457137D01*
X0184961Y0438819D02*
X0187716D01*
Y0440196D01*
X0187257Y0440656D01*
X0185421D01*
X0184961Y0440196D01*
Y0438819D01*
Y0441574D02*
Y0442492D01*
Y0442033D01*
X0187716D01*
Y0441574D01*
Y0442492D01*
Y0443870D02*
X0184961D01*
Y0445247D01*
X0185421Y0445707D01*
X0186339D01*
X0186798Y0445247D01*
Y0443870D01*
Y0444788D02*
X0187716Y0445707D01*
Y0446625D02*
Y0447543D01*
Y0447084D01*
X0184961D01*
X0185421Y0446625D01*
X0185145Y0426876D02*
X0184686Y0426417D01*
Y0425498D01*
X0185145Y0425039D01*
X0185604D01*
X0186063Y0425498D01*
Y0426417D01*
X0186523Y0426876D01*
X0186982D01*
X0187441Y0426417D01*
Y0425498D01*
X0186982Y0425039D01*
X0187441Y0427794D02*
Y0428713D01*
Y0428254D01*
X0184686D01*
Y0427794D01*
X0187441Y0431468D02*
Y0430549D01*
X0186982Y0430090D01*
X0186063D01*
X0185604Y0430549D01*
Y0431468D01*
X0186063Y0431927D01*
X0186523D01*
Y0430090D01*
X0187441Y0434223D02*
Y0433304D01*
X0186982Y0432845D01*
X0186063D01*
X0185604Y0433304D01*
Y0434223D01*
X0186063Y0434682D01*
X0186523D01*
Y0432845D01*
X0188359Y0435600D02*
X0185604D01*
Y0436978D01*
X0186063Y0437437D01*
X0186982D01*
X0187441Y0436978D01*
Y0435600D01*
X0186049Y0420367D02*
X0185590Y0420826D01*
X0184672D01*
X0184213Y0420367D01*
Y0419908D01*
X0184672Y0419448D01*
X0185590D01*
X0186049Y0418989D01*
Y0418530D01*
X0185590Y0418071D01*
X0184672D01*
X0184213Y0418530D01*
X0186968Y0420826D02*
X0188804D01*
X0187886D01*
Y0418071D01*
X0189723D02*
Y0420826D01*
X0191100D01*
X0191559Y0420367D01*
Y0419448D01*
X0191100Y0418989D01*
X0189723D01*
X0194314Y0418071D02*
X0192478D01*
X0194314Y0419908D01*
Y0420367D01*
X0193855Y0420826D01*
X0192937D01*
X0192478Y0420367D01*
X0185145Y0408372D02*
X0184686Y0407913D01*
Y0406995D01*
X0185145Y0406535D01*
X0185604D01*
X0186063Y0406995D01*
Y0407913D01*
X0186523Y0408372D01*
X0186982D01*
X0187441Y0407913D01*
Y0406995D01*
X0186982Y0406535D01*
X0184686Y0409291D02*
Y0411127D01*
Y0410209D01*
X0187441D01*
Y0412045D02*
X0184686D01*
Y0413423D01*
X0185145Y0413882D01*
X0186063D01*
X0186523Y0413423D01*
Y0412045D01*
X0187441Y0414801D02*
Y0415719D01*
Y0415260D01*
X0184686D01*
X0185145Y0414801D01*
X0185355Y0394882D02*
Y0396719D01*
X0184436Y0395800D02*
X0186273D01*
X0184436Y0397637D02*
X0183977Y0398096D01*
Y0399014D01*
X0184436Y0399474D01*
X0184896D01*
X0185355Y0399014D01*
Y0398555D01*
Y0399014D01*
X0185814Y0399474D01*
X0186273D01*
X0186732Y0399014D01*
Y0398096D01*
X0186273Y0397637D01*
X0183977Y0400392D02*
X0185814D01*
X0186732Y0401310D01*
X0185814Y0402229D01*
X0183977D01*
X0184436Y0403147D02*
X0183977Y0403606D01*
Y0404525D01*
X0184436Y0404984D01*
X0184896D01*
X0185355Y0404525D01*
Y0404065D01*
Y0404525D01*
X0185814Y0404984D01*
X0186273D01*
X0186732Y0404525D01*
Y0403606D01*
X0186273Y0403147D01*
X0190237Y0390354D02*
Y0392191D01*
X0189318Y0391273D02*
X0191155D01*
X0191614Y0393109D02*
Y0394028D01*
Y0393568D01*
X0188859D01*
X0189318Y0393109D01*
X0191614Y0397242D02*
Y0395405D01*
X0189778Y0397242D01*
X0189318D01*
X0188859Y0396783D01*
Y0395864D01*
X0189318Y0395405D01*
X0188859Y0398160D02*
X0190696D01*
X0191614Y0399079D01*
X0190696Y0399997D01*
X0188859D01*
M02*
