G04*
G04 #@! TF.GenerationSoftware,Altium Limited,Altium Designer,18.1.9 (240)*
G04*
G04 Layer_Color=16711935*
%FSAX25Y25*%
%MOIN*%
G70*
G01*
G75*
%ADD12C,0.00787*%
%ADD13C,0.00394*%
%ADD14C,0.00591*%
%ADD55R,0.07087X0.01536*%
D12*
X0348307Y0419842D02*
X0380984D01*
X0348307Y0394094D02*
Y0419842D01*
Y0394094D02*
X0355236Y0387165D01*
X0380984Y0393898D02*
Y0419842D01*
X0374252Y0387165D02*
X0380984Y0393898D01*
X0355236Y0387165D02*
X0374252D01*
X0599094Y0466221D02*
X0593191D01*
Y0463269D01*
X0594175Y0462285D01*
X0596143D01*
X0597127Y0463269D01*
Y0466221D01*
X0594175Y0460317D02*
X0593191Y0459333D01*
Y0457365D01*
X0594175Y0456381D01*
X0595159D01*
X0596143Y0457365D01*
Y0458349D01*
Y0457365D01*
X0597127Y0456381D01*
X0598110D01*
X0599094Y0457365D01*
Y0459333D01*
X0598110Y0460317D01*
X0167677Y0466260D02*
X0161774D01*
Y0463308D01*
X0162758Y0462324D01*
X0164725D01*
X0165709Y0463308D01*
Y0466260D01*
X0167677Y0457404D02*
X0161774D01*
X0164725Y0460356D01*
Y0456421D01*
D13*
X0635555Y0447878D02*
X0693429D01*
X0635555Y0412839D02*
Y0447878D01*
Y0412839D02*
X0693429D01*
Y0447878D01*
X0625146Y0477087D02*
Y0482087D01*
X0614146Y0477087D02*
Y0482087D01*
Y0477087D02*
X0625146D01*
X0614146Y0482087D02*
X0625146D01*
X0275776Y0477441D02*
Y0482441D01*
X0264776Y0477441D02*
Y0482441D01*
Y0477441D02*
X0275776D01*
X0264776Y0482441D02*
X0275776D01*
X0297323Y0458150D02*
Y0481378D01*
X0280000Y0458150D02*
X0297323D01*
X0280000D02*
Y0481378D01*
X0297323D01*
X0632283Y0481614D02*
X0649606D01*
X0632283Y0458386D02*
Y0481614D01*
Y0458386D02*
X0649606D01*
Y0481614D01*
X0645622Y0461240D02*
Y0466240D01*
X0656622Y0461240D02*
Y0466240D01*
X0645622D02*
X0656622D01*
X0645622Y0461240D02*
X0656622D01*
X0654350Y0473366D02*
Y0478681D01*
X0645492Y0473366D02*
Y0478681D01*
X0654350D01*
X0645492Y0473366D02*
X0654350D01*
X0583189Y0410669D02*
Y0468898D01*
Y0391024D02*
X0614567D01*
X0583189D02*
Y0410669D01*
Y0468780D02*
X0614567D01*
Y0391024D02*
Y0468780D01*
X0428780Y0417492D02*
X0433779D01*
X0428780Y0428492D02*
X0433779D01*
X0428780Y0417492D02*
Y0428492D01*
X0433779Y0417492D02*
Y0428492D01*
X0414094Y0417335D02*
X0419095D01*
X0414094Y0428335D02*
X0419095D01*
X0414094Y0417335D02*
Y0428335D01*
X0419095Y0417335D02*
Y0428335D01*
X0399331Y0417413D02*
X0404331D01*
X0399331Y0428413D02*
X0404331D01*
X0399331Y0417413D02*
Y0428413D01*
X0404331Y0417413D02*
Y0428413D01*
X0444961Y0417453D02*
X0449961D01*
X0444961Y0428453D02*
X0449961D01*
X0444961Y0417453D02*
Y0428453D01*
X0449961Y0417453D02*
Y0428453D01*
X0428819Y0450697D02*
X0433819D01*
X0428819Y0439697D02*
X0433819D01*
Y0450697D01*
X0428819Y0439697D02*
Y0450697D01*
X0414134D02*
X0419134D01*
X0414134Y0439697D02*
X0419134D01*
Y0450697D01*
X0414134Y0439697D02*
Y0450697D01*
X0444961Y0450500D02*
X0449961D01*
X0444961Y0439500D02*
X0449961D01*
Y0450500D01*
X0444961Y0439500D02*
Y0450500D01*
X0399331Y0439500D02*
X0404331D01*
X0399331Y0450500D02*
X0404331D01*
X0399331Y0439500D02*
Y0450500D01*
X0404331Y0439500D02*
Y0450500D01*
X0362244Y0467531D02*
X0367244D01*
X0362244Y0478532D02*
X0367244D01*
X0362244Y0467531D02*
Y0478532D01*
X0367244Y0467531D02*
Y0478532D01*
X0350748Y0467571D02*
X0355748D01*
X0350748Y0478571D02*
X0355748D01*
X0350748Y0467571D02*
Y0478571D01*
X0355748Y0467571D02*
Y0478571D01*
X0339213Y0467610D02*
X0344213D01*
X0339213Y0478610D02*
X0344213D01*
X0339213Y0467610D02*
Y0478610D01*
X0344213Y0467610D02*
Y0478610D01*
X0362205Y0447610D02*
X0367205D01*
X0362205Y0458610D02*
X0367205D01*
X0362205Y0447610D02*
Y0458610D01*
X0367205Y0447610D02*
Y0458610D01*
X0350748Y0447610D02*
X0355748D01*
X0350748Y0458610D02*
X0355748D01*
X0350748Y0447610D02*
Y0458610D01*
X0355748Y0447610D02*
Y0458610D01*
X0339213Y0447571D02*
X0344213D01*
X0339213Y0458571D02*
X0344213D01*
X0339213Y0447571D02*
Y0458571D01*
X0344213Y0447571D02*
Y0458571D01*
X0311673Y0471673D02*
Y0476988D01*
X0302815Y0471673D02*
Y0476988D01*
X0311673D01*
X0302815Y0471673D02*
X0311673D01*
X0268886Y0461063D02*
Y0466063D01*
X0257886Y0461063D02*
Y0466063D01*
Y0461063D02*
X0268886D01*
X0257886Y0466063D02*
X0268886D01*
X0315972Y0457717D02*
Y0462716D01*
X0304972Y0457717D02*
Y0462716D01*
Y0457717D02*
X0315972D01*
X0304972Y0462716D02*
X0315972D01*
X0211221Y0407165D02*
X0218307D01*
X0211221Y0395748D02*
X0218307D01*
Y0407165D01*
X0211221Y0395748D02*
Y0407165D01*
X0229134Y0412323D02*
X0234646D01*
X0229134Y0400512D02*
X0234646D01*
X0229134D02*
Y0412323D01*
X0234646Y0400512D02*
Y0412323D01*
X0151772Y0410709D02*
Y0468937D01*
Y0391063D02*
X0183150D01*
X0151772D02*
Y0410709D01*
Y0468819D02*
X0183150D01*
Y0391063D02*
Y0468819D01*
X0226705Y0389921D02*
Y0394921D01*
X0237705Y0389921D02*
Y0394921D01*
X0226705D02*
X0237705D01*
X0226705Y0389921D02*
X0237705D01*
X0623646Y0481087D02*
Y0478332D01*
X0622268D01*
X0621809Y0478791D01*
Y0479709D01*
X0622268Y0480168D01*
X0623646D01*
X0622727D02*
X0621809Y0481087D01*
X0619513D02*
Y0478332D01*
X0620891Y0479709D01*
X0619054D01*
X0274276Y0481441D02*
Y0478686D01*
X0272898D01*
X0272439Y0479145D01*
Y0480063D01*
X0272898Y0480523D01*
X0274276D01*
X0273357D02*
X0272439Y0481441D01*
X0269684D02*
X0271521D01*
X0269684Y0479604D01*
Y0479145D01*
X0270143Y0478686D01*
X0271061D01*
X0271521Y0479145D01*
X0647122Y0462240D02*
Y0464995D01*
X0648500D01*
X0648959Y0464536D01*
Y0463618D01*
X0648500Y0463159D01*
X0647122D01*
X0648040D02*
X0648959Y0462240D01*
X0651714D02*
X0649877D01*
X0651714Y0464077D01*
Y0464536D01*
X0651255Y0464995D01*
X0650336D01*
X0649877Y0464536D01*
X0654469Y0462240D02*
X0652632D01*
X0654469Y0464077D01*
Y0464536D01*
X0654010Y0464995D01*
X0653091D01*
X0652632Y0464536D01*
X0432780Y0418992D02*
X0430024D01*
Y0420370D01*
X0430484Y0420829D01*
X0431402D01*
X0431861Y0420370D01*
Y0418992D01*
Y0419910D02*
X0432780Y0420829D01*
Y0421747D02*
Y0422666D01*
Y0422206D01*
X0430024D01*
X0430484Y0421747D01*
X0418094Y0418835D02*
X0415340D01*
Y0420212D01*
X0415799Y0420671D01*
X0416717D01*
X0417176Y0420212D01*
Y0418835D01*
Y0419753D02*
X0418094Y0420671D01*
X0415799Y0421590D02*
X0415340Y0422049D01*
Y0422967D01*
X0415799Y0423426D01*
X0416258D01*
X0416717Y0422967D01*
Y0422508D01*
Y0422967D01*
X0417176Y0423426D01*
X0417635D01*
X0418094Y0422967D01*
Y0422049D01*
X0417635Y0421590D01*
X0403331Y0418913D02*
X0400576D01*
Y0420291D01*
X0401035Y0420750D01*
X0401953D01*
X0402412Y0420291D01*
Y0418913D01*
Y0419832D02*
X0403331Y0420750D01*
X0400576Y0423505D02*
X0401035Y0422587D01*
X0401953Y0421668D01*
X0402872D01*
X0403331Y0422128D01*
Y0423046D01*
X0402872Y0423505D01*
X0402412D01*
X0401953Y0423046D01*
Y0421668D01*
X0448961Y0418953D02*
X0446206D01*
Y0420330D01*
X0446665Y0420789D01*
X0447583D01*
X0448042Y0420330D01*
Y0418953D01*
Y0419871D02*
X0448961Y0420789D01*
X0446665Y0421708D02*
X0446206Y0422167D01*
Y0423085D01*
X0446665Y0423545D01*
X0447124D01*
X0447583Y0423085D01*
X0448042Y0423545D01*
X0448501D01*
X0448961Y0423085D01*
Y0422167D01*
X0448501Y0421708D01*
X0448042D01*
X0447583Y0422167D01*
X0447124Y0421708D01*
X0446665D01*
X0447583Y0422167D02*
Y0423085D01*
X0429819Y0449197D02*
X0432574D01*
Y0447819D01*
X0432115Y0447360D01*
X0431196D01*
X0430737Y0447819D01*
Y0449197D01*
Y0448279D02*
X0429819Y0447360D01*
Y0446442D02*
Y0445524D01*
Y0445983D01*
X0432574D01*
X0432115Y0446442D01*
X0429819Y0442768D02*
X0432574D01*
X0431196Y0444146D01*
Y0442309D01*
X0415134Y0449197D02*
X0417889D01*
Y0447819D01*
X0417430Y0447360D01*
X0416511D01*
X0416052Y0447819D01*
Y0449197D01*
Y0448279D02*
X0415134Y0447360D01*
Y0446442D02*
Y0445524D01*
Y0445983D01*
X0417889D01*
X0417430Y0446442D01*
X0417889Y0442309D02*
Y0444146D01*
X0416511D01*
X0416970Y0443228D01*
Y0442768D01*
X0416511Y0442309D01*
X0415593D01*
X0415134Y0442768D01*
Y0443687D01*
X0415593Y0444146D01*
X0445961Y0449000D02*
X0448716D01*
Y0447622D01*
X0448256Y0447163D01*
X0447338D01*
X0446879Y0447622D01*
Y0449000D01*
Y0448082D02*
X0445961Y0447163D01*
Y0444408D02*
Y0446245D01*
X0447797Y0444408D01*
X0448256D01*
X0448716Y0444868D01*
Y0445786D01*
X0448256Y0446245D01*
Y0443490D02*
X0448716Y0443031D01*
Y0442112D01*
X0448256Y0441653D01*
X0446420D01*
X0445961Y0442112D01*
Y0443031D01*
X0446420Y0443490D01*
X0448256D01*
X0403331Y0441000D02*
X0400576D01*
Y0442378D01*
X0401035Y0442837D01*
X0401953D01*
X0402412Y0442378D01*
Y0441000D01*
Y0441918D02*
X0403331Y0442837D01*
Y0443755D02*
Y0444673D01*
Y0444214D01*
X0400576D01*
X0401035Y0443755D01*
X0402872Y0446051D02*
X0403331Y0446510D01*
Y0447428D01*
X0402872Y0447888D01*
X0401035D01*
X0400576Y0447428D01*
Y0446510D01*
X0401035Y0446051D01*
X0401494D01*
X0401953Y0446510D01*
Y0447888D01*
X0366244Y0469031D02*
X0363489D01*
Y0470409D01*
X0363948Y0470868D01*
X0364867D01*
X0365326Y0470409D01*
Y0469031D01*
Y0469950D02*
X0366244Y0470868D01*
Y0471786D02*
Y0472705D01*
Y0472246D01*
X0363489D01*
X0363948Y0471786D01*
X0366244Y0474082D02*
Y0475001D01*
Y0474542D01*
X0363489D01*
X0363948Y0474082D01*
X0354748Y0469071D02*
X0351993D01*
Y0470448D01*
X0352452Y0470907D01*
X0353370D01*
X0353830Y0470448D01*
Y0469071D01*
Y0469989D02*
X0354748Y0470907D01*
Y0471826D02*
Y0472744D01*
Y0472285D01*
X0351993D01*
X0352452Y0471826D01*
X0354748Y0475958D02*
Y0474122D01*
X0352911Y0475958D01*
X0352452D01*
X0351993Y0475499D01*
Y0474581D01*
X0352452Y0474122D01*
X0343213Y0469110D02*
X0340458D01*
Y0470488D01*
X0340917Y0470947D01*
X0341835D01*
X0342294Y0470488D01*
Y0469110D01*
Y0470029D02*
X0343213Y0470947D01*
Y0471865D02*
Y0472784D01*
Y0472324D01*
X0340458D01*
X0340917Y0471865D01*
Y0474161D02*
X0340458Y0474620D01*
Y0475539D01*
X0340917Y0475998D01*
X0341376D01*
X0341835Y0475539D01*
Y0475079D01*
Y0475539D01*
X0342294Y0475998D01*
X0342753D01*
X0343213Y0475539D01*
Y0474620D01*
X0342753Y0474161D01*
X0366205Y0449110D02*
X0363450D01*
Y0450488D01*
X0363909Y0450947D01*
X0364827D01*
X0365286Y0450488D01*
Y0449110D01*
Y0450029D02*
X0366205Y0450947D01*
Y0451865D02*
Y0452784D01*
Y0452324D01*
X0363450D01*
X0363909Y0451865D01*
X0363450Y0455998D02*
X0363909Y0455079D01*
X0364827Y0454161D01*
X0365746D01*
X0366205Y0454620D01*
Y0455539D01*
X0365746Y0455998D01*
X0365286D01*
X0364827Y0455539D01*
Y0454161D01*
X0354748Y0449110D02*
X0351993D01*
Y0450488D01*
X0352452Y0450947D01*
X0353370D01*
X0353830Y0450488D01*
Y0449110D01*
Y0450029D02*
X0354748Y0450947D01*
Y0451865D02*
Y0452784D01*
Y0452324D01*
X0351993D01*
X0352452Y0451865D01*
X0351993Y0454161D02*
Y0455998D01*
X0352452D01*
X0354289Y0454161D01*
X0354748D01*
X0343213Y0449071D02*
X0340458D01*
Y0450448D01*
X0340917Y0450908D01*
X0341835D01*
X0342294Y0450448D01*
Y0449071D01*
Y0449989D02*
X0343213Y0450908D01*
Y0451826D02*
Y0452744D01*
Y0452285D01*
X0340458D01*
X0340917Y0451826D01*
Y0454122D02*
X0340458Y0454581D01*
Y0455499D01*
X0340917Y0455958D01*
X0341376D01*
X0341835Y0455499D01*
X0342294Y0455958D01*
X0342753D01*
X0343213Y0455499D01*
Y0454581D01*
X0342753Y0454122D01*
X0342294D01*
X0341835Y0454581D01*
X0341376Y0454122D01*
X0340917D01*
X0341835Y0454581D02*
Y0455499D01*
X0267386Y0465063D02*
Y0462308D01*
X0266008D01*
X0265549Y0462767D01*
Y0463686D01*
X0266008Y0464145D01*
X0267386D01*
X0266467D02*
X0265549Y0465063D01*
X0264631D02*
X0263713D01*
X0264172D01*
Y0462308D01*
X0264631Y0462767D01*
X0262335D02*
X0261876Y0462308D01*
X0260958D01*
X0260498Y0462767D01*
Y0464604D01*
X0260958Y0465063D01*
X0261876D01*
X0262335Y0464604D01*
Y0462767D01*
X0314472Y0461717D02*
Y0458961D01*
X0313095D01*
X0312636Y0459421D01*
Y0460339D01*
X0313095Y0460798D01*
X0314472D01*
X0313554D02*
X0312636Y0461717D01*
X0309881D02*
X0311717D01*
X0309881Y0459880D01*
Y0459421D01*
X0310340Y0458961D01*
X0311258D01*
X0311717Y0459421D01*
X0308962Y0461717D02*
X0308044D01*
X0308503D01*
Y0458961D01*
X0308962Y0459421D01*
X0228205Y0390921D02*
Y0393676D01*
X0229582D01*
X0230041Y0393217D01*
Y0392299D01*
X0229582Y0391840D01*
X0228205D01*
X0229123D02*
X0230041Y0390921D01*
X0232796Y0393676D02*
X0230960D01*
Y0392299D01*
X0231878Y0392758D01*
X0232337D01*
X0232796Y0392299D01*
Y0391380D01*
X0232337Y0390921D01*
X0231419D01*
X0230960Y0391380D01*
D14*
X0359358Y0398490D02*
X0358702Y0397834D01*
Y0396522D01*
X0359358Y0395866D01*
X0361982D01*
X0362638Y0396522D01*
Y0397834D01*
X0361982Y0398490D01*
X0362638Y0399802D02*
Y0401114D01*
Y0400458D01*
X0358702D01*
X0359358Y0399802D01*
X0289056Y0475551D02*
X0292336D01*
X0292992Y0474895D01*
Y0473583D01*
X0292336Y0472927D01*
X0289056D01*
X0292992Y0468992D02*
Y0471615D01*
X0290368Y0468992D01*
X0289712D01*
X0289056Y0469648D01*
Y0470960D01*
X0289712Y0471615D01*
X0641340Y0475787D02*
X0644620D01*
X0645276Y0475131D01*
Y0473819D01*
X0644620Y0473164D01*
X0641340D01*
X0641996Y0471852D02*
X0641340Y0471196D01*
Y0469884D01*
X0641996Y0469228D01*
X0642652D01*
X0643308Y0469884D01*
Y0470540D01*
Y0469884D01*
X0643964Y0469228D01*
X0644620D01*
X0645276Y0469884D01*
Y0471196D01*
X0644620Y0471852D01*
X0644254Y0475208D02*
Y0472584D01*
Y0473896D01*
X0650814D01*
X0652126Y0472584D01*
Y0471273D01*
X0650814Y0469961D01*
X0645566Y0477832D02*
X0644254Y0479144D01*
Y0481768D01*
X0645566Y0483080D01*
X0646878D01*
X0648190Y0481768D01*
Y0480456D01*
Y0481768D01*
X0649502Y0483080D01*
X0650814D01*
X0652126Y0481768D01*
Y0479144D01*
X0650814Y0477832D01*
X0301577Y0473515D02*
Y0470892D01*
Y0472203D01*
X0308137D01*
X0309449Y0470892D01*
Y0469580D01*
X0308137Y0468268D01*
X0309449Y0481387D02*
Y0476139D01*
X0304201Y0481387D01*
X0302889D01*
X0301577Y0480075D01*
Y0477451D01*
X0302889Y0476139D01*
X0305632Y0380591D02*
X0312192D01*
X0313504Y0381903D01*
Y0384526D01*
X0312192Y0385838D01*
X0305632D01*
X0313504Y0388462D02*
Y0391086D01*
Y0389774D01*
X0305632D01*
X0306944Y0388462D01*
X0221297Y0408543D02*
X0213425D01*
Y0404608D01*
X0214737Y0403296D01*
X0219985D01*
X0221297Y0404608D01*
Y0408543D01*
X0213425Y0400672D02*
Y0398048D01*
Y0399360D01*
X0221297D01*
X0219985Y0400672D01*
X0232666Y0399254D02*
X0235290D01*
X0233978D01*
Y0405814D01*
X0235290Y0407126D01*
X0236601D01*
X0237913Y0405814D01*
X0230042Y0407126D02*
X0227418D01*
X0228730D01*
Y0399254D01*
X0230042Y0400566D01*
D55*
X0214764Y0406397D02*
D03*
M02*
