G04*
G04 #@! TF.GenerationSoftware,Altium Limited,Altium Designer,18.1.9 (240)*
G04*
G04 Layer_Color=8421504*
%FSAX25Y25*%
%MOIN*%
G70*
G01*
G75*
%ADD15R,0.07874X0.11811*%
%ADD16R,0.02756X0.03347*%
%ADD17R,0.04331X0.13386*%
%ADD18R,0.01575X0.03347*%
%ADD19R,0.11811X0.05906*%
%ADD20R,0.03347X0.02756*%
%ADD21R,0.04803X0.04921*%
%ADD22R,0.03819X0.03150*%
D15*
X0673744Y0452012D02*
D03*
X0650122D02*
D03*
Y0408705D02*
D03*
X0673744D02*
D03*
D16*
X0622894Y0479587D02*
D03*
X0616398D02*
D03*
X0273524Y0479941D02*
D03*
X0267028D02*
D03*
X0647874Y0463740D02*
D03*
X0654370D02*
D03*
X0266634Y0463563D02*
D03*
X0260138D02*
D03*
X0313720Y0460217D02*
D03*
X0307224D02*
D03*
X0228957Y0392421D02*
D03*
X0235453D02*
D03*
D17*
X0364764Y0390827D02*
D03*
Y0416457D02*
D03*
D18*
X0647362Y0480354D02*
D03*
X0652480D02*
D03*
Y0471693D02*
D03*
X0649921D02*
D03*
X0647362D02*
D03*
X0304685Y0478661D02*
D03*
X0309803D02*
D03*
Y0470000D02*
D03*
X0307244D02*
D03*
X0304685D02*
D03*
D19*
X0607677Y0402283D02*
D03*
Y0412284D02*
D03*
Y0422284D02*
D03*
Y0432283D02*
D03*
Y0442283D02*
D03*
Y0452283D02*
D03*
Y0462284D02*
D03*
X0589961Y0397284D02*
D03*
Y0407283D02*
D03*
Y0417283D02*
D03*
Y0427283D02*
D03*
Y0437284D02*
D03*
Y0447284D02*
D03*
Y0457283D02*
D03*
X0176260Y0402323D02*
D03*
Y0412323D02*
D03*
Y0422323D02*
D03*
Y0432323D02*
D03*
Y0442323D02*
D03*
Y0452323D02*
D03*
Y0462323D02*
D03*
X0158543Y0397323D02*
D03*
Y0407323D02*
D03*
Y0417323D02*
D03*
Y0427323D02*
D03*
Y0437323D02*
D03*
Y0447323D02*
D03*
Y0457323D02*
D03*
D20*
X0431280Y0419744D02*
D03*
Y0426240D02*
D03*
X0416595Y0419587D02*
D03*
Y0426083D02*
D03*
X0401831Y0419665D02*
D03*
Y0426161D02*
D03*
X0447461Y0419705D02*
D03*
Y0426201D02*
D03*
X0431319Y0448445D02*
D03*
Y0441949D02*
D03*
X0416634Y0448445D02*
D03*
Y0441949D02*
D03*
X0447461Y0448248D02*
D03*
Y0441752D02*
D03*
X0401831D02*
D03*
Y0448248D02*
D03*
X0364744Y0469783D02*
D03*
Y0476279D02*
D03*
X0353248Y0469823D02*
D03*
Y0476319D02*
D03*
X0341713Y0469862D02*
D03*
Y0476358D02*
D03*
X0364705Y0449862D02*
D03*
Y0456358D02*
D03*
X0353248Y0449862D02*
D03*
Y0456358D02*
D03*
X0341713Y0449823D02*
D03*
Y0456319D02*
D03*
D21*
X0214764Y0407264D02*
D03*
Y0395650D02*
D03*
D22*
X0228346Y0406417D02*
D03*
X0235433Y0410157D02*
D03*
Y0402677D02*
D03*
M02*
