G04*
G04 #@! TF.GenerationSoftware,Altium Limited,Altium Designer,18.1.9 (240)*
G04*
G04 Layer_Color=16711935*
%FSAX25Y25*%
%MOIN*%
G70*
G01*
G75*
%ADD11C,0.01000*%
%ADD54C,0.00600*%
D11*
X0099291Y0466653D02*
X0101291Y0460653D01*
X0097291D02*
X0099291Y0466653D01*
X0097291Y0492347D02*
X0099291Y0486347D01*
X0101291Y0492347D01*
X0099291Y0456653D02*
Y0466653D01*
Y0486347D02*
Y0496347D01*
X0098291Y0486347D02*
X0120701D01*
X0098291Y0466653D02*
X0113403D01*
X0106252Y0511307D02*
X0112252Y0513307D01*
X0106252Y0515307D02*
X0112252Y0513307D01*
X0129567D02*
X0135567Y0515307D01*
X0129567Y0513307D02*
X0135567Y0511307D01*
X0102252Y0513307D02*
X0112252D01*
X0129567D02*
X0139567D01*
X0129567Y0482817D02*
Y0514307D01*
X0112252Y0477898D02*
Y0514307D01*
X0700283Y0492347D02*
X0702283Y0486347D01*
X0704284Y0492347D01*
X0702283Y0466653D02*
X0704284Y0460653D01*
X0700283D02*
X0702283Y0466653D01*
Y0486347D02*
Y0496347D01*
Y0456653D02*
Y0466653D01*
X0692581D02*
X0703284D01*
X0685299Y0486347D02*
X0703284D01*
X0693748Y0507008D02*
X0699748Y0509008D01*
X0693748Y0507008D02*
X0699748Y0505008D01*
X0670417D02*
X0676417Y0507008D01*
X0670417Y0509008D02*
X0676417Y0507008D01*
X0693748D02*
X0703748D01*
X0666417D02*
X0676417D01*
Y0482817D02*
Y0508008D01*
X0693748Y0477898D02*
Y0508008D01*
X0784614Y0378174D02*
X0786614Y0372174D01*
X0788614Y0378174D01*
X0786614Y0486347D02*
X0788614Y0480347D01*
X0784614D02*
X0786614Y0486347D01*
Y0372174D02*
Y0412565D01*
Y0442756D02*
Y0486347D01*
X0685299Y0372174D02*
X0787614D01*
X0685299Y0486347D02*
X0787614D01*
X0112252Y0502362D02*
X0118252Y0504362D01*
X0112252Y0502362D02*
X0118252Y0500362D01*
X0687748D02*
X0693748Y0502362D01*
X0687748Y0504362D02*
X0693748Y0502362D01*
X0112252D02*
X0383805D01*
X0418995D02*
X0693748D01*
X0112252Y0477898D02*
Y0503362D01*
X0693748Y0477898D02*
Y0503362D01*
D54*
X0086095Y0468402D02*
Y0464404D01*
X0089094D01*
X0088095Y0466403D01*
Y0467403D01*
X0089094Y0468402D01*
X0091094D01*
X0092093Y0467403D01*
Y0465403D01*
X0091094Y0464404D01*
X0092093Y0470402D02*
X0091094D01*
Y0471401D01*
X0092093D01*
Y0470402D01*
X0087095Y0475400D02*
X0086095Y0476400D01*
Y0478399D01*
X0087095Y0479399D01*
X0091094D01*
X0092093Y0478399D01*
Y0476400D01*
X0091094Y0475400D01*
X0087095D01*
Y0481398D02*
X0086095Y0482398D01*
Y0484397D01*
X0087095Y0485397D01*
X0091094D01*
X0092093Y0484397D01*
Y0482398D01*
X0091094Y0481398D01*
X0087095D01*
X0111812Y0520505D02*
Y0526503D01*
X0108813Y0523504D01*
X0112812D01*
X0114811Y0520505D02*
Y0521505D01*
X0115811D01*
Y0520505D01*
X0114811D01*
X0122808D02*
Y0526503D01*
X0119809Y0523504D01*
X0123808D01*
X0125807Y0525503D02*
X0126807Y0526503D01*
X0128806D01*
X0129806Y0525503D01*
Y0521505D01*
X0128806Y0520505D01*
X0126807D01*
X0125807Y0521505D01*
Y0525503D01*
X0710681Y0468402D02*
Y0464404D01*
X0713681D01*
X0712681Y0466403D01*
Y0467403D01*
X0713681Y0468402D01*
X0715680D01*
X0716680Y0467403D01*
Y0465403D01*
X0715680Y0464404D01*
X0716680Y0470402D02*
X0715680D01*
Y0471401D01*
X0716680D01*
Y0470402D01*
X0711681Y0475400D02*
X0710681Y0476400D01*
Y0478399D01*
X0711681Y0479399D01*
X0715680D01*
X0716680Y0478399D01*
Y0476400D01*
X0715680Y0475400D01*
X0711681D01*
Y0481398D02*
X0710681Y0482398D01*
Y0484397D01*
X0711681Y0485397D01*
X0715680D01*
X0716680Y0484397D01*
Y0482398D01*
X0715680Y0481398D01*
X0711681D01*
X0675985Y0514206D02*
Y0520204D01*
X0672986Y0517205D01*
X0676985D01*
X0678984Y0514206D02*
Y0515206D01*
X0679984D01*
Y0514206D01*
X0678984D01*
X0686981D02*
Y0520204D01*
X0683982Y0517205D01*
X0687981D01*
X0689981Y0519204D02*
X0690980Y0520204D01*
X0692979D01*
X0693979Y0519204D01*
Y0515206D01*
X0692979Y0514206D01*
X0690980D01*
X0689981Y0515206D01*
Y0519204D01*
X0790213Y0418163D02*
Y0414165D01*
X0786214Y0418163D01*
X0785215D01*
X0784215Y0417164D01*
Y0415164D01*
X0785215Y0414165D01*
X0789214Y0420163D02*
X0790213Y0421162D01*
Y0423162D01*
X0789214Y0424161D01*
X0785215D01*
X0784215Y0423162D01*
Y0421162D01*
X0785215Y0420163D01*
X0786214D01*
X0787214Y0421162D01*
Y0424161D01*
X0790213Y0426161D02*
X0789214D01*
Y0427161D01*
X0790213D01*
Y0426161D01*
X0785215Y0431159D02*
X0784215Y0432159D01*
Y0434158D01*
X0785215Y0435158D01*
X0789214D01*
X0790213Y0434158D01*
Y0432159D01*
X0789214Y0431159D01*
X0785215D01*
Y0437157D02*
X0784215Y0438157D01*
Y0440156D01*
X0785215Y0441156D01*
X0789214D01*
X0790213Y0440156D01*
Y0438157D01*
X0789214Y0437157D01*
X0785215D01*
X0385405Y0498763D02*
X0387404D01*
X0386405D01*
Y0504761D01*
X0385405Y0503761D01*
X0393403Y0498763D02*
Y0504761D01*
X0390403Y0501762D01*
X0394402D01*
X0396402Y0504761D02*
X0400400D01*
Y0503761D01*
X0396402Y0499763D01*
Y0498763D01*
X0402399D02*
Y0499763D01*
X0403399D01*
Y0498763D01*
X0402399D01*
X0407398Y0504761D02*
X0411397D01*
Y0503761D01*
X0407398Y0499763D01*
Y0498763D01*
X0413396Y0503761D02*
X0414396Y0504761D01*
X0416395D01*
X0417395Y0503761D01*
Y0499763D01*
X0416395Y0498763D01*
X0414396D01*
X0413396Y0499763D01*
Y0503761D01*
M02*
