G04*
G04 #@! TF.GenerationSoftware,Altium Limited,Altium Designer,18.1.9 (240)*
G04*
G04 Layer_Color=32896*
%FSAX25Y25*%
%MOIN*%
G70*
G01*
G75*
%ADD11C,0.01000*%
%ADD12C,0.00787*%
%ADD13C,0.00394*%
%ADD52C,0.00000*%
%ADD53R,0.21535X0.06028*%
D11*
X0279718Y0483661D02*
G03*
X0279718Y0483661I-0000230J0000000D01*
G01*
X0632001Y0483898D02*
G03*
X0632001Y0483898I-0000230J0000000D01*
G01*
X0628622Y0465329D02*
Y0460330D01*
X0627622Y0459331D01*
X0625623D01*
X0624623Y0460330D01*
Y0465329D01*
X0622624Y0464329D02*
X0621624Y0465329D01*
X0619625D01*
X0618625Y0464329D01*
Y0463329D01*
X0619625Y0462330D01*
X0620625D01*
X0619625D01*
X0618625Y0461330D01*
Y0460330D01*
X0619625Y0459331D01*
X0621624D01*
X0622624Y0460330D01*
X0311339Y0465565D02*
Y0460567D01*
X0310339Y0459567D01*
X0308340D01*
X0307340Y0460567D01*
Y0465565D01*
X0301342Y0459567D02*
X0305341D01*
X0301342Y0463566D01*
Y0464565D01*
X0302342Y0465565D01*
X0304341D01*
X0305341Y0464565D01*
D12*
X0457283Y0462196D02*
X0455316D01*
X0456299D01*
Y0456292D01*
X0457283D01*
X0455316D01*
X0452364D02*
Y0462196D01*
X0449412D01*
X0448428Y0461212D01*
Y0459244D01*
X0449412Y0458260D01*
X0452364D01*
X0450396D02*
X0448428Y0456292D01*
X0446460D02*
Y0462196D01*
X0442524Y0456292D01*
Y0462196D01*
X0440557Y0456292D02*
Y0460228D01*
X0438589Y0462196D01*
X0436621Y0460228D01*
Y0456292D01*
Y0459244D01*
X0440557D01*
X0430717Y0461212D02*
X0431701Y0462196D01*
X0433669D01*
X0434653Y0461212D01*
Y0460228D01*
X0433669Y0459244D01*
X0431701D01*
X0430717Y0458260D01*
Y0457276D01*
X0431701Y0456292D01*
X0433669D01*
X0434653Y0457276D01*
X0428749Y0456292D02*
Y0457276D01*
X0427766D01*
Y0456292D01*
X0428749D01*
X0420878D02*
X0422846D01*
X0423830Y0457276D01*
Y0459244D01*
X0422846Y0460228D01*
X0420878D01*
X0419894Y0459244D01*
Y0458260D01*
X0423830D01*
X0417926Y0460228D02*
Y0457276D01*
X0416942Y0456292D01*
X0413990D01*
Y0460228D01*
X0457283Y0447318D02*
Y0453222D01*
X0455316Y0451254D01*
X0453348Y0453222D01*
Y0447318D01*
X0450396D02*
X0448428D01*
X0447444Y0448302D01*
Y0450270D01*
X0448428Y0451254D01*
X0450396D01*
X0451380Y0450270D01*
Y0448302D01*
X0450396Y0447318D01*
X0444492Y0452238D02*
Y0451254D01*
X0445476D01*
X0443508D01*
X0444492D01*
Y0448302D01*
X0443508Y0447318D01*
X0439573D02*
X0437605D01*
X0436621Y0448302D01*
Y0450270D01*
X0437605Y0451254D01*
X0439573D01*
X0440557Y0450270D01*
Y0448302D01*
X0439573Y0447318D01*
X0434653Y0451254D02*
Y0447318D01*
Y0449286D01*
X0433669Y0450270D01*
X0432685Y0451254D01*
X0431701D01*
X0428749Y0446334D02*
X0424814D01*
X0418910Y0453222D02*
Y0447318D01*
X0421862D01*
X0422846Y0448302D01*
Y0450270D01*
X0421862Y0451254D01*
X0418910D01*
X0416942D02*
Y0447318D01*
Y0449286D01*
X0415958Y0450270D01*
X0414974Y0451254D01*
X0413990D01*
X0411039Y0447318D02*
X0409071D01*
X0410055D01*
Y0451254D01*
X0411039D01*
X0406119D02*
X0404151Y0447318D01*
X0402183Y0451254D01*
X0397264Y0447318D02*
X0399231D01*
X0400215Y0448302D01*
Y0450270D01*
X0399231Y0451254D01*
X0397264D01*
X0396280Y0450270D01*
Y0449286D01*
X0400215D01*
X0394312Y0451254D02*
Y0447318D01*
Y0449286D01*
X0393328Y0450270D01*
X0392344Y0451254D01*
X0391360D01*
X0457283Y0441296D02*
X0455316Y0437360D01*
X0453348Y0441296D01*
X0451380Y0442280D02*
X0450396Y0443263D01*
X0448428D01*
X0447444Y0442280D01*
Y0438344D01*
X0448428Y0437360D01*
X0450396D01*
X0451380Y0438344D01*
Y0442280D01*
X0445476Y0437360D02*
Y0438344D01*
X0444492D01*
Y0437360D01*
X0445476D01*
X0436621D02*
X0440557D01*
X0436621Y0441296D01*
Y0442280D01*
X0437605Y0443263D01*
X0439573D01*
X0440557Y0442280D01*
X0457283Y0428386D02*
Y0434289D01*
X0453348Y0428386D01*
Y0434289D01*
X0450396Y0428386D02*
X0448428D01*
X0447444Y0429370D01*
Y0431338D01*
X0448428Y0432322D01*
X0450396D01*
X0451380Y0431338D01*
Y0429370D01*
X0450396Y0428386D01*
X0445476D02*
Y0429370D01*
X0444492D01*
Y0428386D01*
X0445476D01*
D13*
X0280000Y0458819D02*
Y0480551D01*
X0297323Y0458779D02*
Y0480472D01*
X0280000Y0480551D02*
Y0481378D01*
X0281181D01*
X0280000Y0458150D02*
Y0458819D01*
Y0458150D02*
X0281181D01*
X0297323Y0458110D02*
Y0458779D01*
X0296142Y0458110D02*
X0297323D01*
Y0480472D02*
Y0481378D01*
X0297284Y0481417D02*
X0297323Y0481378D01*
X0296102Y0481417D02*
X0297284D01*
X0648386Y0481653D02*
X0649567D01*
X0649606Y0481614D01*
Y0480709D02*
Y0481614D01*
X0648425Y0458347D02*
X0649606D01*
Y0459016D01*
X0632283Y0458386D02*
X0633465D01*
X0632283D02*
Y0459055D01*
Y0481614D02*
X0633465D01*
X0632283Y0480787D02*
Y0481614D01*
X0649606Y0459016D02*
Y0480709D01*
X0632283Y0459055D02*
Y0480787D01*
D52*
X0280000Y0480551D02*
X0281299D01*
X0632283Y0480787D02*
X0633583D01*
D53*
X0432185Y0431159D02*
D03*
M02*
